<svg viewBox="0 0 64 64" fill="none" xmlns="http://www.w3.org/2000/svg">
<rect width="64" height="64" rx="32" />
<path d="M45.6928 31.4932C46.2332 30.7946 46.6622 30.2341 46.979 29.8112C49.2607 26.7776 50.2498 24.8397 49.9467 23.9948L49.8278 23.7969C49.7487 23.678 49.5439 23.5689 49.2144 23.4701C48.8846 23.3714 48.4625 23.3556 47.9484 23.4208L42.2504 23.461C42.1186 23.4478 41.9857 23.4509 41.8546 23.4701C41.7227 23.4902 41.6371 23.5103 41.5972 23.5295C41.5575 23.5496 41.5247 23.5658 41.4985 23.5789L41.4195 23.6383C41.3535 23.6776 41.2811 23.7471 41.202 23.8463C41.1228 23.9454 41.0564 24.0604 41.0041 24.1927C40.3842 25.7886 39.6786 27.2726 38.8871 28.6444C38.399 29.4622 37.9503 30.1717 37.542 30.7711C37.133 31.3717 36.7901 31.8135 36.513 32.0965C36.2361 32.38 35.9853 32.608 35.7613 32.7789C35.5367 32.951 35.3655 33.0231 35.2471 32.9969C35.1345 32.9724 35.0224 32.9459 34.9107 32.9174C34.726 32.7991 34.5773 32.6378 34.4656 32.4329C34.3533 32.229 34.2777 31.9716 34.2379 31.6614C34.1986 31.3517 34.175 31.0844 34.1689 30.8598C34.1619 30.6357 34.1654 30.3194 34.1789 29.91C34.1921 29.5011 34.1986 29.2246 34.1986 29.0791C34.1986 28.5784 34.2086 28.0341 34.2284 27.447C34.248 26.8603 34.2647 26.395 34.2777 26.052C34.2909 25.7095 34.2974 25.3465 34.2974 24.9638C34.2974 24.582 34.2742 24.2814 34.2278 24.0634C34.1812 23.8457 34.1116 23.6335 34.0203 23.4304C33.9278 23.2264 33.7927 23.0678 33.6145 22.956C33.4363 22.8437 33.2156 22.7551 32.9518 22.6886C32.2523 22.53 31.362 22.4453 30.2808 22.4313C27.8273 22.406 26.2511 22.5641 25.5521 22.9066C25.2752 23.0521 25.0244 23.2495 24.8003 23.5003C24.5627 23.7908 24.5299 23.9494 24.7016 23.9747C25.4932 24.0936 26.0533 24.3775 26.3831 24.8257L26.502 25.063C26.5941 25.2351 26.6863 25.5383 26.7789 25.9734C26.8712 26.4085 26.9305 26.8899 26.9572 27.4177C27.0231 28.3805 27.0231 29.2045 26.9572 29.8908C26.8912 30.5771 26.8287 31.111 26.7694 31.4928C26.7099 31.8755 26.6208 32.1852 26.5024 32.4224C26.3835 32.6605 26.3045 32.8056 26.2647 32.8584C26.225 32.9108 26.1922 32.944 26.166 32.9572C25.9955 33.0226 25.8144 33.0561 25.6318 33.0559C25.447 33.0559 25.2228 32.9632 24.959 32.7784C24.6951 32.5945 24.4212 32.3403 24.1381 32.017C23.8541 31.6942 23.5348 31.242 23.1783 30.6614C22.8222 30.0817 22.4526 29.3954 22.0703 28.6042L21.754 28.0301C21.5562 27.6615 21.2857 27.1236 20.9428 26.4181C20.5998 25.7125 20.2962 25.0302 20.0328 24.3701C19.927 24.0936 19.7689 23.8826 19.5579 23.7371L19.4592 23.6777C19.3932 23.6252 19.2875 23.5689 19.1425 23.5099C18.996 23.4502 18.8433 23.4069 18.6873 23.381L13.2662 23.4204C12.7123 23.4204 12.3366 23.5462 12.1387 23.7969L12.0596 23.9153C12.0196 23.9817 12 24.0874 12 24.2321C12 24.3775 12.0398 24.5553 12.1189 24.7659C12.9104 26.6261 13.7711 28.4199 14.7007 30.1472C15.6308 31.8755 16.4386 33.2673 17.1245 34.3224C17.8103 35.3783 18.5093 36.3734 19.2219 37.3101C19.9344 38.2467 20.4057 38.8464 20.6364 39.1099C20.867 39.3742 21.0483 39.5722 21.1803 39.7036L21.6749 40.1789C21.9912 40.4953 22.4564 40.8744 23.0698 41.3165C23.6832 41.7586 24.3621 42.1937 25.1078 42.6219C25.8527 43.0509 26.7203 43.3999 27.7093 43.6708C28.6984 43.9416 29.6612 44.0504 30.5979 43.9971H32.8731C33.3349 43.9578 33.6843 43.8132 33.9216 43.5619L34.0006 43.4632C34.053 43.3846 34.1029 43.2623 34.1491 43.0975C34.195 42.9328 34.2187 42.7511 34.2187 42.5537C34.2051 41.9867 34.2484 41.4746 34.3471 41.0203C34.4459 40.5651 34.5581 40.2226 34.6836 39.9911C34.8089 39.7608 34.9504 39.566 35.1089 39.4074C35.2672 39.2488 35.379 39.154 35.4454 39.1208C35.5113 39.0884 35.5643 39.0653 35.6036 39.0513C35.9198 38.9459 36.2925 39.0482 36.7215 39.358C37.1501 39.6686 37.5525 40.0504 37.9286 40.5056C38.3042 40.9608 38.7559 41.4715 39.2837 42.039C39.811 42.606 40.2727 43.028 40.6686 43.305L41.0644 43.5431C41.3281 43.7008 41.6707 43.8458 42.0932 43.9783C42.5152 44.1097 42.8848 44.1429 43.201 44.077L48.266 43.9975C48.7671 43.9975 49.1564 43.9154 49.4334 43.7502C49.7103 43.5864 49.8751 43.4038 49.928 43.2063C49.9804 43.0084 49.9839 42.7852 49.938 42.534C49.8918 42.2836 49.8455 42.1089 49.7996 42.0101C49.7534 41.9114 49.7104 41.8284 49.6706 41.7629C49.0111 40.5759 47.7515 39.1181 45.8917 37.3903L45.852 37.351L45.8324 37.3309L45.8127 37.3116H45.7929C44.9484 36.5069 44.4145 35.966 44.1904 35.6887C43.7816 35.1618 43.6889 34.6275 43.9135 34.0867C44.0708 33.6766 44.664 32.8125 45.6928 31.4932Z" fill="#161616"/>
</svg>
