<svg width="28" height="28" viewBox="0 0 28 28" xmlns="http://www.w3.org/2000/svg">
<path d="M24.7698 11.7222L14.1245 22.3662C12.9493 23.5832 11.35 24.3002 9.6595 24.368C7.96901 24.4358 6.31747 23.8492 5.04852 22.7302C4.42888 22.1468 3.93274 21.4448 3.58955 20.666C3.24637 19.8872 3.06312 19.0474 3.05068 18.1964C3.03824 17.3454 3.19687 16.5006 3.51716 15.7121C3.83744 14.9236 4.31286 14.2075 4.91518 13.6062L13.9818 4.53954C14.6967 3.84547 15.6559 3.46052 16.6523 3.46786C17.6486 3.47521 18.602 3.87427 19.3066 4.5788C20.0111 5.28334 20.4102 6.23678 20.4175 7.23312C20.4249 8.22946 20.0399 9.18869 19.3458 9.90354L10.2792 18.9702C10.0453 19.1923 9.73505 19.3161 9.41252 19.3161C9.08998 19.3161 8.77975 19.1923 8.54585 18.9702C8.31786 18.7394 8.19001 18.428 8.19001 18.1035C8.19001 17.7791 8.31786 17.4677 8.54585 17.2369L15.7952 9.98754C16.0455 9.73576 16.1856 9.39483 16.1846 9.03976C16.1836 8.6847 16.0416 8.34457 15.7899 8.0942C15.5381 7.84384 15.1971 7.70375 14.8421 7.70475C14.487 7.70575 14.1469 7.84776 13.8965 8.09954L6.64718 15.3462C5.9179 16.0777 5.50838 17.0686 5.50838 18.1015C5.50838 19.1345 5.9179 20.1253 6.64718 20.8569C7.38931 21.5653 8.37586 21.9606 9.40185 21.9606C10.4278 21.9606 11.4144 21.5653 12.1565 20.8569L21.2232 11.7902C21.8329 11.1923 22.318 10.4795 22.6505 9.69292C22.983 8.90636 23.1562 8.06169 23.1602 7.20776C23.1641 6.35383 22.9987 5.50758 22.6736 4.71797C22.3484 3.92836 21.8699 3.21105 21.2658 2.60753C20.6617 2.00401 19.9439 1.52626 19.1539 1.20191C18.364 0.877556 17.5176 0.713041 16.6636 0.717877C15.8097 0.722713 14.9652 0.896805 14.179 1.23008C13.3928 1.56336 12.6804 2.04921 12.0832 2.65954L3.01652 11.7262C2.1621 12.5802 1.48793 13.5971 1.03402 14.7166C0.580102 15.8361 0.355689 17.0354 0.374094 18.2433C0.392499 19.4512 0.653347 20.6431 1.14116 21.7482C1.62897 22.8534 2.33381 23.8493 3.21385 24.6769C4.86524 26.2116 7.04219 27.0548 9.29652 27.0329C11.8147 27.0322 14.2296 26.0312 16.0098 24.2502L26.6552 13.6049C26.7825 13.4819 26.8841 13.3347 26.954 13.1721C27.0239 13.0094 27.0606 12.8344 27.0622 12.6574C27.0637 12.4804 27.03 12.3048 26.9629 12.1409C26.8959 11.9771 26.7969 11.8282 26.6717 11.703C26.5465 11.5778 26.3976 11.4788 26.2338 11.4118C26.0699 11.3447 25.8944 11.311 25.7173 11.3125C25.5403 11.3141 25.3653 11.3509 25.2026 11.4207C25.04 11.4906 24.8928 11.5922 24.7698 11.7195V11.7222Z" />
</svg>
