<svg width="130" height="130" viewBox="0 0 130 130" fill="none" xmlns="http://www.w3.org/2000/svg">
<rect width="130" height="130" rx="65" fill="#161616"/>
<path d="M51.9846 36H71.9413C74.2551 36 76.2797 37.88 76.2797 40.3384V62.3196C76.2797 64.6334 74.3997 66.658 71.9413 66.658H48.2247L37.5233 73.3102V66.658H35.6433C33.3295 66.658 31.3049 64.778 31.3049 62.3196V40.3384C31.3049 37.88 33.1849 36 35.6433 36H41.5725M46.0555 36H47.6462" stroke="#A330FF" stroke-width="2.5" stroke-miterlimit="10" stroke-linecap="round" stroke-linejoin="round"/>
<path d="M53.7678 66.7805V85.9583C53.7678 88.4282 55.6457 90.3169 58.1015 90.3169H81.7922L92.4819 97V90.3169H94.3598C96.8155 90.3169 98.6935 88.4282 98.6935 85.9583V64.6013C98.6935 62.2767 96.8155 60.2427 94.3598 60.2427H76.3029" stroke="#A330FF" stroke-width="2.5" stroke-miterlimit="10" stroke-linecap="round" stroke-linejoin="round"/>
<path d="M38.8242 52.4858H45.0426M61.9623 45.1105H68.6146M38.8242 45.1105H56.3224M50.8271 51.3289H68.7592M58.7809 57.5473H68.7592M38.8242 57.5473H53.2855" stroke="#D6FF41" stroke-width="2.5" stroke-miterlimit="10" stroke-linecap="round" stroke-linejoin="round"/>
<path d="M86.9506 78.6213C88.9242 78.6213 90.5242 77.0214 90.5242 75.0477C90.5242 73.074 88.9242 71.4741 86.9506 71.4741C84.9769 71.4741 83.377 73.074 83.377 75.0477C83.377 77.0214 84.9769 78.6213 86.9506 78.6213Z" stroke="#D6FF41" stroke-width="2.5" stroke-miterlimit="10" stroke-linecap="round" stroke-linejoin="round"/>
<path d="M71.1252 79.6426C72.827 81.1836 77.2515 83.341 81.3356 79.6426" stroke="#D6FF41" stroke-width="2.5" stroke-linecap="round"/>
<path d="M65.5094 78.6214C67.4831 78.6214 69.0831 77.0214 69.0831 75.0478C69.0831 73.0741 67.4831 71.4741 65.5094 71.4741C63.5358 71.4741 61.9358 73.0741 61.9358 75.0478C61.9358 77.0214 63.5358 78.6214 65.5094 78.6214Z" stroke="#D6FF41" stroke-width="2.5" stroke-miterlimit="10" stroke-linecap="round" stroke-linejoin="round"/>
<path d="M89.1503 54.5105L93.6334 52.1967M88.2827 49.0152L92.7657 44.5322M82.7874 48.0029L85.1012 43.6646" stroke="#D6FF41" stroke-width="2.5" stroke-miterlimit="10" stroke-linecap="round" stroke-linejoin="round"/>
</svg>
