<svg width="130" height="130" viewBox="0 0 130 130" fill="none" xmlns="http://www.w3.org/2000/svg">
<rect width="130" height="130" rx="65" fill="#161616"/>
<path d="M64.5836 63.4195C64.4675 63.3032 64.3297 63.211 64.1779 63.1481C64.0262 63.0852 63.8635 63.0529 63.6992 63.0529C63.535 63.0529 63.3723 63.0852 63.2206 63.1481C63.0688 63.211 62.9309 63.3032 62.8148 63.4195C62.3273 63.907 62.3273 64.6982 62.8148 65.187C63.3036 65.6745 64.0949 65.6745 64.5836 65.187C65.0711 64.6982 65.0711 63.907 64.5836 63.4195ZM80.4927 47.5091C78.0502 45.0667 74.0961 45.0666 71.6535 47.5091C69.2173 49.9453 69.2172 53.9103 71.6539 56.3485C74.0909 58.784 78.056 58.785 80.4927 56.3482C82.935 53.9059 82.9355 49.9518 80.4927 47.5091ZM78.725 54.5803C77.2633 56.0421 74.884 56.0421 73.4216 54.5806C71.9597 53.1178 71.9596 50.7385 73.4214 49.2769C74.8868 47.8115 77.2593 47.8112 78.725 49.2769C80.1904 50.7422 80.1906 53.1148 78.725 54.5803Z" fill="#D6FF41"/>
<path d="M94.634 33.3661C94.5127 33.2445 94.3676 33.1493 94.2078 33.0864C94.048 33.0236 93.8768 32.9944 93.7052 33.0009C93.4226 33.011 86.6931 33.2815 78.6936 36.1089C72.2835 38.3722 66.9406 41.6126 62.8131 45.7402C61.8775 46.6772 60.9813 47.6529 60.1271 48.6647C56.046 46.2624 52.7757 47.0157 50.7083 48.1221C45.9481 50.6696 43.0017 57.5867 43.0017 62.5343C43.0019 62.8658 43.1337 63.1836 43.3681 63.418C43.6025 63.6524 43.9204 63.7841 44.2519 63.7843C44.416 63.7844 44.5786 63.752 44.7303 63.6892C44.882 63.6264 45.0199 63.5343 45.136 63.4182C47.6464 60.9078 50.7428 61.0648 51.7543 61.1978L52.1921 61.6356C51.3306 63.6856 50.6366 65.7241 50.1276 67.7068C49.9438 68.4243 50.0058 69.1835 50.2789 69.8781C49.0754 70.4327 47.9143 71.2471 46.9033 72.2581C43.6856 75.4759 43.0322 83.3178 43.006 83.65C42.9917 83.8302 43.0168 84.0113 43.0793 84.1809C43.1418 84.3504 43.2404 84.5044 43.3682 84.6322C43.496 84.76 43.6499 84.8586 43.8195 84.9212C43.9891 84.9837 44.1702 85.0087 44.3504 84.9945C44.6826 84.9684 52.5247 84.315 55.7424 81.0973C56.753 80.0867 57.5673 78.9257 58.1219 77.7224C58.8572 78.0116 59.614 78.0472 60.2945 77.8728C62.2762 77.3639 64.3145 76.6702 66.3648 75.8085L66.8026 76.2463C66.9354 77.2579 67.0924 80.3543 64.5822 82.8645C64.4074 83.0393 64.2884 83.262 64.2402 83.5045C64.192 83.747 64.2167 83.9983 64.3113 84.2266C64.4059 84.455 64.5661 84.6502 64.7717 84.7876C64.9772 84.9249 65.2188 84.9983 65.466 84.9983C70.4136 84.9983 77.3306 82.0519 79.8781 77.2917C80.9845 75.2245 81.7378 71.9542 79.3355 67.873C80.3473 67.0188 81.323 66.1226 82.26 65.187C86.3876 61.0594 89.6279 55.7165 91.8912 49.3069C94.7187 41.307 94.9891 34.5774 94.9992 34.2949C95.0117 33.948 94.8794 33.6116 94.634 33.3661ZM45.7965 59.8457C46.573 56.0877 48.8284 51.964 51.8885 50.3263C53.9334 49.232 56.1685 49.3392 58.5451 50.6401C56.5145 53.3124 54.7552 56.1802 53.2931 59.2011C53.2745 59.1896 53.0495 58.9068 52.6315 58.8125C52.4596 58.7736 49.1522 58.0623 45.7965 59.8457ZM53.9746 79.3294C52.2558 81.0482 48.2239 81.9547 45.6755 82.3249C46.0458 79.7763 46.9524 75.7445 48.671 74.0259C49.6336 73.0634 50.7496 72.3336 51.8713 71.9226L56.0779 76.1292C55.6669 77.2509 54.9373 78.3669 53.9746 79.3294ZM59.6735 75.451C59.3117 75.5436 58.8927 75.4076 58.5812 75.0966L56.1329 72.6485L52.9046 69.42C52.5929 69.1077 52.4569 68.6888 52.5492 68.3277C52.9496 66.7684 53.4732 65.1686 54.11 63.5535L64.447 73.8905C62.8316 74.5274 61.2321 75.0509 59.6735 75.451ZM77.6742 76.112C76.0365 79.1719 71.9129 81.4275 68.1551 82.2039C69.3532 79.9492 69.6174 77.079 69.1796 75.3386C69.078 74.9344 68.8142 74.7311 68.7995 74.7073C71.8203 73.2451 74.6881 71.4857 77.3603 69.4553C78.6612 71.8321 78.7684 74.0675 77.6742 76.112ZM80.4925 63.4192C79.3493 64.5606 78.1459 65.6402 76.8875 66.6533C73.8447 69.1033 70.4956 71.1786 66.9226 72.8306L55.1699 61.0782C56.8219 57.5049 58.8972 54.1558 61.347 51.1134C62.3675 49.8468 63.4555 48.6337 64.5814 47.508C68.2846 43.8047 73.0639 40.8574 78.7905 38.7358L89.2647 49.21C87.1434 54.9365 84.1961 59.7158 80.4925 63.4192ZM90.164 46.5736L81.4269 37.8364C86.1871 36.3579 90.3283 35.8043 92.3953 35.6053C92.1962 37.6727 91.6424 41.8139 90.164 46.5736Z" fill="#A330FF"/>
<path d="M61.0467 84.632C60.5583 84.1439 59.7668 84.1441 59.2788 84.6322L55.7437 88.1685C55.2557 88.6568 55.2558 89.4483 55.7439 89.9363C56.2323 90.4243 57.0238 90.4243 57.5119 89.9361L61.0469 86.3998C61.5349 85.9115 61.5348 85.12 61.0467 84.632ZM43.3693 66.9545C42.8813 66.4662 42.0899 66.4662 41.6015 66.9542L38.0652 70.4893C37.5769 70.9773 37.5768 71.7688 38.0648 72.257C38.5527 72.7451 39.3441 72.7456 39.8326 72.2573L43.3689 68.7222C43.8571 68.2342 43.8573 67.4427 43.3693 66.9545ZM52.208 86.4009C51.7201 85.9128 50.9285 85.9128 50.4402 86.4008L41.9726 94.8671C41.4844 95.3553 41.4844 96.1468 41.9725 96.6349C42.4604 97.123 43.252 97.1233 43.7403 96.635L52.2079 88.1687C52.6962 87.6805 52.6962 86.889 52.208 86.4009ZM42.2079 86.4009C41.7199 85.9128 40.9282 85.9128 40.4401 86.4008L31.9725 94.8671C31.4842 95.3553 31.4842 96.1468 31.9723 96.6349C32.4602 97.123 33.2519 97.1233 33.7401 96.635L42.2077 88.1687C42.696 87.6805 42.696 86.889 42.2079 86.4009ZM41.6002 75.793C41.1122 75.305 40.3206 75.305 39.8325 75.7931L31.3661 84.2607C30.878 84.749 30.878 85.5404 31.3662 86.0286C31.8543 86.5168 32.6459 86.5168 33.134 86.0285L41.6004 77.5609C42.0885 77.0726 42.0885 76.2812 41.6002 75.793ZM69.8858 58.1153C69.3975 57.6272 68.6063 57.6272 68.1179 58.1153L66.3504 59.8829C65.8622 60.371 65.8622 61.1625 66.3504 61.6508C66.8386 62.1389 67.63 62.1389 68.1183 61.6508L69.8858 59.8832C70.3739 59.3951 70.3739 58.6036 69.8858 58.1153Z" fill="#D6FF41"/>
<path d="M87.8214 85.9185C87.219 86.5613 86.2298 86.6033 85.587 86.0009C84.9442 85.3985 84.9058 84.3886 85.5253 83.7701L86.7859 82.4089L85.4247 81.1483C84.7819 80.5459 84.7435 79.5359 85.3423 78.9139C85.9446 78.2711 86.9339 78.2291 87.5767 78.8315L88.9379 80.0921L90.1985 78.7308C90.8009 78.0881 91.7901 78.0461 92.4329 78.6484C93.0756 79.2508 93.1177 80.2401 92.5153 80.8828L91.234 82.2405L92.5916 83.5218C93.2344 84.1242 93.2764 85.1134 92.674 85.7562C92.0716 86.399 91.0824 86.441 90.4396 85.8386L89.082 84.5573L87.8214 85.9185Z" fill="#D6FF41"/>
<path d="M58.1952 35.7533C58.8158 36.759 58.5227 38.0546 57.517 38.6751C56.5113 39.2957 55.1902 38.9907 54.6071 37.9714L53.2875 35.8611L51.1772 37.1807C50.1715 37.8013 48.8503 37.4963 48.2553 36.5025C47.6347 35.4968 47.9278 34.2012 48.9335 33.5806L51.0438 32.261L49.7242 30.1507C49.1036 29.145 49.3967 27.8495 50.4024 27.2289C51.4081 26.6083 52.7037 26.9014 53.3243 27.9071L54.6319 30.0429L56.7678 28.7352C57.7735 28.1146 59.0691 28.4077 59.6897 29.4134C60.3103 30.4191 60.0172 31.7147 59.0115 32.3353L56.8756 33.643L58.1952 35.7533Z" fill="#D6FF41"/>
</svg>
