<svg width="24" height="24" viewBox="0 0 24 24" fill="none" xmlns="http://www.w3.org/2000/svg">
<path d="M12 0C18.6276 0 24 5.3724 24 12C24 18.6276 18.6276 24 12 24C5.3724 24 0 18.6276 0 12C0 5.3724 5.3724 0 12 0ZM12 15.6C11.6817 15.6 11.3765 15.7264 11.1515 15.9515C10.9264 16.1765 10.8 16.4817 10.8 16.8C10.8 17.1183 10.9264 17.4235 11.1515 17.6485C11.3765 17.8736 11.6817 18 12 18C12.3183 18 12.6235 17.8736 12.8485 17.6485C13.0736 17.4235 13.2 17.1183 13.2 16.8C13.2 16.4817 13.0736 16.1765 12.8485 15.9515C12.6235 15.7264 12.3183 15.6 12 15.6ZM12 4.8C11.7061 4.80004 11.4224 4.90795 11.2028 5.10326C10.9831 5.29857 10.8428 5.5677 10.8084 5.8596L10.8 6V13.2C10.8003 13.5059 10.9175 13.8 11.1274 14.0224C11.3374 14.2448 11.6243 14.3787 11.9297 14.3966C12.235 14.4145 12.5357 14.3152 12.7702 14.1189C13.0047 13.9226 13.1555 13.6441 13.1916 13.3404L13.2 13.2V6C13.2 5.68174 13.0736 5.37652 12.8485 5.15147C12.6235 4.92643 12.3183 4.8 12 4.8Z" fill="#FF006B"/>
</svg>
