<svg width="64" height="64" viewBox="0 0 64 64" fill="none" xmlns="http://www.w3.org/2000/svg">
<rect width="64" height="64" rx="32"/>
<path d="M32 26.499C28.964 26.499 26.498 28.965 26.498 32.001C26.498 35.037 28.964 37.509 32 37.509C35.036 37.509 37.508 35.037 37.508 32.001C37.508 28.965 35.036 26.499 32 26.499Z" fill="#161616"/>
<path d="M40.304 17H23.696C20.006 17 17 20.006 17 23.696V40.304C17 44 20.006 47 23.696 47H40.304C44 47 47 44 47 40.304V23.696C47 20.006 44 17 40.304 17ZM32 41.72C26.642 41.72 22.28 37.358 22.28 32C22.28 26.642 26.642 22.286 32 22.286C37.358 22.286 41.72 26.642 41.72 32C41.72 37.358 37.358 41.72 32 41.72ZM41.924 24.05C40.79 24.05 39.866 23.132 39.866 21.998C39.866 20.864 40.79 19.94 41.924 19.94C43.058 19.94 43.982 20.864 43.982 21.998C43.982 23.132 43.058 24.05 41.924 24.05Z" fill="#161616"/>
</svg>
