<svg width="158" height="53" viewBox="0 0 158 53" fill="none" xmlns="http://www.w3.org/2000/svg">
<g clip-path="url(#clip0_2168_2052)">
<path d="M5.15944 17.1977C5.15944 19.3107 5.61042 21.1964 6.51238 22.8547C7.44086 24.513 8.70096 25.8236 10.2926 26.7865C11.8843 27.7494 13.6883 28.2309 15.7044 28.2309C17.7471 28.2309 19.551 27.7494 21.1162 26.7865C22.7079 25.8236 23.9547 24.513 24.8566 22.8547C25.7851 21.1964 26.2494 19.3107 26.2494 17.1977C26.2494 15.0847 25.7851 13.199 24.8566 11.5407C23.9547 9.88235 22.7079 8.57174 21.1162 7.60885C19.551 6.64595 17.7471 6.1645 15.7044 6.1645C13.6883 6.1645 11.8843 6.64595 10.2926 7.60885C8.70096 8.57174 7.44086 9.88235 6.51238 11.5407C5.61042 13.199 5.15944 15.0847 5.15944 17.1977ZM1.57812 17.1977C1.57812 15.1382 1.92299 13.2391 2.61273 11.5006C3.32899 9.73524 4.3238 8.21066 5.59715 6.9268C6.87051 5.61619 8.36935 4.5998 10.0937 3.87763C11.818 3.12871 13.6883 2.75425 15.7044 2.75425C17.7471 2.75425 19.6173 3.12871 21.3151 3.87763C23.0395 4.5998 24.5383 5.61619 25.8117 6.9268C27.085 8.21066 28.0666 9.73524 28.7563 11.5006C29.4726 13.2391 29.8307 15.1382 29.8307 17.1977C29.8307 19.2305 29.4726 21.1295 28.7563 22.8948C28.0666 24.6601 27.085 26.1981 25.8117 27.5087C24.5383 28.7926 23.0395 29.8089 21.3151 30.5579C19.6173 31.28 17.7471 31.6411 15.7044 31.6411C13.6883 31.6411 11.818 31.28 10.0937 30.5579C8.36935 29.8089 6.87051 28.7926 5.59715 27.5087C4.3238 26.1981 3.32899 24.6601 2.61273 22.8948C1.92299 21.1295 1.57812 19.2305 1.57812 17.1977Z" fill="white"/>
<path d="M35.8409 22.0122C35.8409 23.296 36.1062 24.4328 36.6367 25.4224C37.1938 26.4121 37.9366 27.2011 38.8651 27.7895C39.8201 28.3512 40.8945 28.6321 42.0883 28.6321C43.0698 28.6321 43.9851 28.485 44.834 28.1907C45.7094 27.8698 46.4654 27.4552 47.1021 26.947C47.7388 26.4121 48.1898 25.8504 48.4551 25.2619V29.274C47.8184 30.0229 46.9032 30.6114 45.7094 31.0393C44.5421 31.4405 43.3351 31.6411 42.0883 31.6411C40.3109 31.6411 38.7059 31.2265 37.2734 30.3974C35.8409 29.5682 34.7002 28.4315 33.8513 26.9871C33.0289 25.516 32.6177 23.8577 32.6177 22.0122C32.6177 20.1399 33.0289 18.4815 33.8513 17.0372C34.7002 15.5929 35.8409 14.4561 37.2734 13.6269C38.7059 12.7978 40.3109 12.3832 42.0883 12.3832C43.3351 12.3832 44.5421 12.5972 45.7094 13.0251C46.9032 13.4263 47.8184 14.0014 48.4551 14.7503V18.7624C48.1898 18.1472 47.7388 17.5855 47.1021 17.0773C46.4654 16.5691 45.7094 16.1679 44.834 15.8737C43.9851 15.5527 43.0698 15.3923 42.0883 15.3923C40.8945 15.3923 39.8201 15.6731 38.8651 16.2348C37.9366 16.7965 37.1938 17.5855 36.6367 18.6019C36.1062 19.5916 35.8409 20.7283 35.8409 22.0122Z" fill="white"/>
<path d="M50.6253 12.7844H59.7775V15.7935H50.6253V12.7844ZM53.6097 6.36511H56.7931V31.2399H53.6097V6.36511Z" fill="white"/>
<path d="M61.3786 22.0122C61.3786 20.1399 61.7897 18.4815 62.6121 17.0372C63.461 15.5929 64.6017 14.4561 66.0343 13.6269C67.4668 12.7978 69.0717 12.3832 70.8491 12.3832C72.6531 12.3832 74.258 12.7978 75.664 13.6269C77.0965 14.4561 78.224 15.5929 79.0464 17.0372C79.8953 18.4815 80.3197 20.1399 80.3197 22.0122C80.3197 23.8577 79.8953 25.516 79.0464 26.9871C78.224 28.4315 77.0965 29.5682 75.664 30.3974C74.258 31.2265 72.6531 31.6411 70.8491 31.6411C69.0717 31.6411 67.4668 31.2265 66.0343 30.3974C64.6017 29.5682 63.461 28.4315 62.6121 26.9871C61.7897 25.516 61.3786 23.8577 61.3786 22.0122ZM64.6017 22.0122C64.6017 23.296 64.867 24.4328 65.3976 25.4224C65.9547 26.4121 66.6975 27.2011 67.626 27.7895C68.581 28.3512 69.6554 28.6321 70.8491 28.6321C72.0429 28.6321 73.104 28.3512 74.0325 27.7895C74.9875 27.2011 75.7303 26.4121 76.2609 25.4224C76.818 24.4328 77.0965 23.296 77.0965 22.0122C77.0965 20.7283 76.818 19.5916 76.2609 18.6019C75.7303 17.5855 74.9875 16.7965 74.0325 16.2348C73.104 15.6731 72.0429 15.3923 70.8491 15.3923C69.6554 15.3923 68.581 15.6731 67.626 16.2348C66.6975 16.7965 65.9547 17.5855 65.3976 18.6019C64.867 19.5916 64.6017 20.7283 64.6017 22.0122Z" fill="white"/>
<path d="M106.496 23.8176L113.738 3.15545H117.518L106.576 32.6441L98.2191 10.8185L89.8627 32.6441L78.9198 3.15545H82.7001L90.1015 23.8176L98.2191 1.75123L106.496 23.8176Z" fill="white"/>
<path d="M124.807 31.6411C123.109 31.6411 121.597 31.2399 120.27 30.4375C118.97 29.6083 117.949 28.4716 117.206 27.0272C116.49 25.5829 116.132 23.9112 116.132 22.0122C116.132 20.0864 116.503 18.4013 117.246 16.957C118.015 15.5126 119.077 14.3892 120.429 13.5868C121.809 12.7844 123.401 12.3832 125.205 12.3832C127.008 12.3832 128.547 12.771 129.82 13.5467C131.12 14.2956 132.115 15.3789 132.805 16.7965C133.495 18.2141 133.839 19.8991 133.839 21.8517C133.839 22.0389 133.826 22.2395 133.8 22.4535C133.8 22.6407 133.8 22.7611 133.8 22.8146H118.161V20.0864H131.293L130.019 21.9319C130.099 21.7982 130.179 21.5976 130.258 21.3301C130.338 21.0359 130.378 20.7952 130.378 20.6079C130.378 19.5113 130.152 18.5618 129.701 17.7594C129.277 16.957 128.68 16.3284 127.91 15.8737C127.141 15.419 126.239 15.1917 125.205 15.1917C123.984 15.1917 122.936 15.4591 122.061 15.9941C121.212 16.5023 120.549 17.2512 120.071 18.2408C119.62 19.2037 119.382 20.394 119.355 21.8116C119.355 23.2559 119.581 24.4863 120.032 25.5027C120.483 26.5191 121.146 27.2947 122.021 27.8297C122.897 28.3646 123.958 28.6321 125.205 28.6321C126.451 28.6321 127.552 28.3646 128.507 27.8297C129.462 27.268 130.271 26.4254 130.935 25.3021L133.521 26.947C132.566 28.4983 131.359 29.6752 129.9 30.4776C128.468 31.2533 126.77 31.6411 124.807 31.6411Z" fill="white"/>
<path d="M141.187 -0.0541992V31.2399H138.004V-0.0541992H141.187ZM156.507 22.0122C156.507 23.9915 156.096 25.7033 155.274 27.1476C154.451 28.592 153.35 29.702 151.971 30.4776C150.618 31.2533 149.106 31.6411 147.434 31.6411C145.922 31.6411 144.583 31.2533 143.415 30.4776C142.275 29.702 141.373 28.592 140.71 27.1476C140.073 25.7033 139.755 23.9915 139.755 22.0122C139.755 20.0061 140.073 18.2943 140.71 16.8767C141.373 15.4324 142.275 14.3224 143.415 13.5467C144.583 12.771 145.922 12.3832 147.434 12.3832C149.106 12.3832 150.618 12.771 151.971 13.5467C153.35 14.3224 154.451 15.4324 155.274 16.8767C156.096 18.2943 156.507 20.0061 156.507 22.0122ZM153.284 22.0122C153.284 20.5946 152.992 19.3909 152.409 18.4013C151.851 17.4117 151.095 16.6627 150.14 16.1545C149.212 15.6464 148.177 15.3923 147.037 15.3923C146.108 15.3923 145.193 15.6464 144.291 16.1545C143.389 16.6627 142.646 17.4117 142.062 18.4013C141.479 19.3909 141.187 20.5946 141.187 22.0122C141.187 23.4298 141.479 24.6334 142.062 25.623C142.646 26.6127 143.389 27.3616 144.291 27.8698C145.193 28.378 146.108 28.6321 147.037 28.6321C148.177 28.6321 149.212 28.378 150.14 27.8698C151.095 27.3616 151.851 26.6127 152.409 25.623C152.992 24.6334 153.284 23.4298 153.284 22.0122Z" fill="white"/>
<path d="M3.47087 44.1523H6.11321C6.74896 44.1523 7.31849 44.219 7.82179 44.3526C8.32509 44.4861 8.72243 44.7198 9.01382 45.0537C9.30521 45.3875 9.4509 45.8549 9.4509 46.4558C9.4509 47.1503 9.21911 47.7445 8.75555 48.2386C8.30522 48.7194 7.55689 48.9597 6.51055 48.9597H3.47087V47.5575H6.11321C6.70922 47.5575 7.1463 47.4307 7.42444 47.177C7.71583 46.9232 7.86152 46.6161 7.86152 46.2555C7.86152 46.0686 7.82179 45.9016 7.74232 45.7547C7.6761 45.6079 7.57014 45.4743 7.42444 45.3541C7.292 45.2339 7.11319 45.1471 6.88803 45.0937C6.67611 45.027 6.41784 44.9936 6.11321 44.9936H3.47087V44.1523ZM3.47087 44.5529V43.6114H5.91454C6.15294 43.6114 6.36486 43.5847 6.55029 43.5313C6.74896 43.4645 6.91452 43.371 7.04697 43.2509C7.17941 43.1307 7.27875 42.9971 7.34497 42.8502C7.42444 42.69 7.46418 42.5231 7.46418 42.3495C7.46418 41.9889 7.32511 41.7018 7.04697 41.4881C6.76883 41.2611 6.39135 41.1476 5.91454 41.1476H3.47087V39.7454H5.91454C6.48406 39.7454 7.00061 39.8322 7.46418 40.0058C7.94099 40.1661 8.32509 40.4331 8.61648 40.8071C8.90786 41.1676 9.05356 41.6484 9.05356 42.2493C9.05356 42.7701 8.90786 43.2041 8.61648 43.5513C8.32509 43.8852 7.94099 44.1389 7.46418 44.3125C7.00061 44.4728 6.48406 44.5529 5.91454 44.5529H3.47087ZM2.53711 39.7454H4.12649V48.9597H2.53711V39.7454Z" fill="white"/>
<path d="M11.758 44.7532V43.3911H17.8572C17.8042 42.9103 17.6718 42.4897 17.4599 42.1291C17.2612 41.7552 16.9764 41.4681 16.6056 41.2678C16.248 41.0541 15.8043 40.9473 15.2745 40.9473C14.7447 40.9473 14.2612 41.0608 13.8242 41.2878C13.3871 41.5148 13.0361 41.842 12.7712 42.2693C12.5196 42.6833 12.3937 43.1774 12.3937 43.7516L12.354 44.3526C12.354 45.0603 12.4732 45.6613 12.7116 46.1554C12.95 46.6495 13.2878 47.0234 13.7248 47.2771C14.1619 47.5308 14.6785 47.6577 15.2745 47.6577C15.7248 47.6577 16.1221 47.5909 16.4665 47.4574C16.8241 47.3105 17.142 47.1169 17.4201 46.8765C17.6983 46.6228 17.9367 46.329 18.1354 45.9951L19.4267 46.8164C19.1221 47.2838 18.7843 47.6978 18.4135 48.0583C18.0426 48.4055 17.5923 48.6793 17.0625 48.8796C16.5327 49.0666 15.8705 49.16 15.0758 49.16C14.2546 49.16 13.5129 48.9531 12.8507 48.5391C12.2017 48.1251 11.6851 47.5576 11.301 46.8364C10.9302 46.102 10.7448 45.274 10.7448 44.3526C10.7448 44.179 10.7514 44.012 10.7646 43.8518C10.7779 43.6915 10.7977 43.5313 10.8242 43.371C10.9567 42.6099 11.2216 41.9422 11.6189 41.3679C12.0163 40.7937 12.5262 40.3463 13.1487 40.0258C13.7844 39.7053 14.493 39.5451 15.2745 39.5451C16.1354 39.5451 16.8903 39.7387 17.5393 40.126C18.1883 40.5133 18.6916 41.0608 19.0492 41.7686C19.4069 42.463 19.5857 43.2976 19.5857 44.2724C19.5857 44.3526 19.5857 44.4327 19.5857 44.5128C19.5857 44.5929 19.579 44.6731 19.5658 44.7532H11.758Z" fill="white"/>
<path d="M25.6978 41.0474V39.5451C26.5984 39.5451 27.3997 39.7521 28.1017 40.1661C28.8169 40.58 29.3798 41.1476 29.7904 41.8687C30.2143 42.5898 30.4262 43.4178 30.4262 44.3526C30.4262 45.274 30.2143 46.102 29.7904 46.8364C29.3798 47.5576 28.8169 48.1251 28.1017 48.5391C27.3997 48.9531 26.5984 49.16 25.6978 49.16C24.8104 49.16 24.0091 48.9397 23.2938 48.499C22.5786 48.045 22.0091 47.3706 21.5853 46.4759C21.1747 45.5811 20.9694 44.4728 20.9694 43.1507L22.5588 44.3526C22.5588 44.9936 22.6978 45.5611 22.976 46.0552C23.2541 46.5493 23.625 46.9433 24.0885 47.2371C24.5653 47.5175 25.1018 47.6577 25.6978 47.6577C26.2938 47.6577 26.8236 47.5175 27.2872 47.2371C27.764 46.9433 28.1348 46.5493 28.3997 46.0552C28.6779 45.5611 28.8169 44.9936 28.8169 44.3526C28.8169 43.7116 28.6779 43.144 28.3997 42.6499C28.1348 42.1425 27.764 41.7485 27.2872 41.4681C26.8236 41.1877 26.2938 41.0474 25.6978 41.0474ZM21.8435 44.3526C21.8435 43.6047 21.9363 42.937 22.1217 42.3495C22.3071 41.7485 22.572 41.2411 22.9164 40.8271C23.2607 40.4131 23.6647 40.0993 24.1283 39.8856C24.6051 39.6586 25.1282 39.5451 25.6978 39.5451V41.0474C25.3534 41.0474 24.9958 41.1209 24.6249 41.2678C24.2541 41.4147 23.9097 41.6283 23.5919 41.9088C23.2872 42.1892 23.0356 42.5364 22.8369 42.9504C22.6515 43.351 22.5588 43.8184 22.5588 44.3526H21.8435ZM20.9694 43.1507C20.9694 41.8954 21.0886 40.787 21.327 39.8255C21.5654 38.864 21.9826 38.0494 22.5786 37.3817C23.1879 36.7007 24.0223 36.1799 25.0819 35.8193C25.9825 35.5122 26.6514 35.1449 27.0885 34.7176C27.5388 34.2769 27.8103 33.8162 27.903 33.3354H29.4725C29.4063 33.923 29.1944 34.4639 28.8368 34.958C28.4792 35.4387 28.009 35.8594 27.4262 36.2199C26.8567 36.5805 26.2077 36.881 25.4792 37.1213C24.6581 37.3884 24.0157 37.789 23.5521 38.3232C23.1018 38.8574 22.7905 39.465 22.6184 40.146C22.4462 40.8137 22.3601 41.4814 22.3601 42.1491V44.2124L20.9694 43.1507Z" fill="white"/>
<path d="M31.2188 44.9535V43.4512H35.1923V44.9535H31.2188Z" fill="white"/>
<path d="M37.4961 44.3526C37.4961 44.9936 37.6286 45.5611 37.8935 46.0552C38.1716 46.5493 38.5424 46.9433 39.006 47.2371C39.4828 47.5175 40.0192 47.6577 40.6153 47.6577C41.1053 47.6577 41.5623 47.5843 41.9861 47.4374C42.4232 47.2771 42.8007 47.0701 43.1185 46.8164C43.4364 46.5493 43.6616 46.2689 43.794 45.9751V47.9782C43.4761 48.3521 43.0192 48.6459 42.4232 48.8596C41.8404 49.0599 41.2378 49.16 40.6153 49.16C39.7279 49.16 38.9265 48.9531 38.2113 48.5391C37.4961 48.1251 36.9266 47.5576 36.5027 46.8364C36.0922 46.102 35.8869 45.274 35.8869 44.3526C35.8869 43.4178 36.0922 42.5898 36.5027 41.8687C36.9266 41.1476 37.4961 40.58 38.2113 40.1661C38.9265 39.7521 39.7279 39.5451 40.6153 39.5451C41.2378 39.5451 41.8404 39.6519 42.4232 39.8656C43.0192 40.0659 43.4761 40.353 43.794 40.7269V42.73C43.6616 42.4229 43.4364 42.1425 43.1185 41.8887C42.8007 41.635 42.4232 41.4347 41.9861 41.2878C41.5623 41.1276 41.1053 41.0474 40.6153 41.0474C40.0192 41.0474 39.4828 41.1877 39.006 41.4681C38.5424 41.7485 38.1716 42.1425 37.8935 42.6499C37.6286 43.144 37.4961 43.7116 37.4961 44.3526Z" fill="white"/>
<path d="M44.8776 39.7454H50.2417V41.2477H44.8776V39.7454ZM46.7649 40.146H48.3543V48.9597H46.7649V40.146Z" fill="white"/>
<path d="M59.6895 39.7454L53.7293 53.3666H51.9413L54.4445 47.6577L50.9479 39.7454H52.8353L55.7359 46.9566L55.0803 46.8765L57.9014 39.7454H59.6895Z" fill="white"/>
<path d="M64.9714 42.5097L62.2893 48.3588H60.5013L64.9714 39.0443L69.4415 48.3588H67.6534L64.9714 42.5097ZM69.0442 48.9597H60.9979V50.7625H59.3092V47.4574H70.6335V50.7625H69.0442V48.9597Z" fill="white"/>
<path d="M80.6719 41.3479L73.1224 49.6608L73.2217 47.3572L80.7712 39.0443L80.6719 41.3479ZM74.7117 39.7454V47.4574L73.1224 49.6608V39.7454H74.7117ZM80.7712 39.0443V48.9597H79.1819V41.2477L80.7712 39.0443Z" fill="white"/>
<path d="M85.1603 48.9597H83.412L86.7894 44.1523H88.5378L85.1603 48.9597ZM90.9616 48.9597H89.3722V39.7454H90.9616V48.9597ZM90.0278 43.8718V45.274H87.1868C86.5643 45.274 85.9948 45.1805 85.4782 44.9936C84.9749 44.8066 84.5776 44.5128 84.2862 44.1122C83.9948 43.6982 83.8491 43.1641 83.8491 42.5097C83.8491 41.842 83.9948 41.3078 84.2862 40.9072C84.5776 40.5066 84.9749 40.2128 85.4782 40.0258C85.9948 39.8389 86.5643 39.7454 87.1868 39.7454H90.0278V41.1476H87.1868C86.8027 41.1476 86.4782 41.201 86.2133 41.3078C85.9616 41.4013 85.7696 41.5482 85.6371 41.7485C85.5047 41.9488 85.4385 42.2026 85.4385 42.5097C85.4385 42.8168 85.5047 43.0706 85.6371 43.2709C85.7696 43.4712 85.9616 43.6248 86.2133 43.7316C86.4782 43.8251 86.8027 43.8718 87.1868 43.8718H90.0278Z" fill="white"/>
</g>
<defs>
<clipPath id="clip0_2168_2052">
<rect width="158" height="53" fill="white"/>
</clipPath>
</defs>
</svg>
