<svg width="130" height="130" viewBox="0 0 130 130" fill="none" xmlns="http://www.w3.org/2000/svg">
<rect width="130" height="130" rx="65" fill="#161616"/>
<path d="M82.1985 88.3968C77.3186 88.053 72.5703 85.8523 69.1173 81.8758C67.018 79.458 65.5581 76.5527 64.871 73.4253L67.2665 72.9028C67.8659 75.6286 69.1386 78.1608 70.9684 80.2683C76.9882 87.1997 87.5253 87.9421 94.4566 81.9231C101.378 75.905 102.12 65.3711 96.1108 58.4421C93.6694 55.6169 90.347 53.6971 86.68 52.9929C83.0131 52.2887 79.2158 52.8412 75.9016 54.5611L74.7759 52.383C78.5783 50.4097 82.9349 49.7758 87.1419 50.5837C91.349 51.3916 95.1609 53.5941 97.9619 56.8354C104.858 64.7853 104.007 76.8697 96.0641 83.7734C92.0884 87.2266 87.0768 88.7405 82.1985 88.3968Z" fill="#9733E7"/>
<path d="M83.8585 81.6931C83.5473 81.6682 83.2573 81.5256 83.0476 81.2944C82.8379 81.0631 82.7242 80.7606 82.7299 80.4484C82.7355 80.1363 82.86 79.838 83.0779 79.6145C83.2958 79.3909 83.5908 79.2589 83.9027 79.2453C86.1633 79.1721 88.3286 78.3177 90.0301 76.8275C91.593 75.4772 92.6907 73.6689 93.1675 71.6592C93.2048 71.5026 93.2727 71.3549 93.3671 71.2245C93.4616 71.0941 93.5808 70.9836 93.7179 70.8993C93.8551 70.815 94.0075 70.7585 94.1665 70.7331C94.3255 70.7077 94.4879 70.7138 94.6445 70.7512C94.8012 70.7886 94.9489 70.8564 95.0793 70.9509C95.2096 71.0453 95.3202 71.1645 95.4045 71.3017C95.4888 71.4388 95.5453 71.5913 95.5707 71.7502C95.5961 71.9092 95.59 72.0717 95.5526 72.2283C94.958 74.7367 93.5881 76.994 91.6375 78.6795C89.5067 80.5269 86.8088 81.5911 83.9907 81.6959C83.9464 81.6976 83.9024 81.6962 83.8585 81.6931ZM65.1554 83.6868L69.2327 80.1462L70.8402 81.9973L66.7629 85.5379L65.1554 83.6868Z" fill="#9733E7"/>
<path d="M52.5975 101.478C51.8623 101.427 51.1443 101.232 50.4849 100.903C49.8254 100.575 49.2373 100.119 48.7546 99.5622C48.2696 99.0069 47.8996 98.3609 47.666 97.6617C47.4324 96.9624 47.3397 96.2238 47.3935 95.4885C47.4989 93.9922 48.1805 92.6279 49.3123 91.6458L58.9765 83.2522C60.1008 82.2777 61.5658 81.7891 63.05 81.8937C64.5342 81.9983 65.9162 82.6874 66.8928 83.8099C67.378 84.3651 67.7482 85.0111 67.982 85.7104C68.2157 86.4097 68.3084 87.1484 68.2547 87.8837C68.1493 89.3792 67.4677 90.7443 66.3359 91.7264L56.6709 100.121C56.1148 100.604 55.4686 100.973 54.7696 101.206C54.0705 101.439 53.3324 101.531 52.5975 101.478ZM62.8785 84.3395C62.4645 84.3096 62.0487 84.3617 61.6549 84.4929C61.2611 84.6242 60.8971 84.8319 60.5839 85.1042L50.9207 93.4954C50.2834 94.0496 49.8997 94.8173 49.8403 95.6593C49.781 96.5012 50.0532 97.3159 50.6066 97.9532C51.1568 98.5848 51.935 98.9726 52.7706 99.0314C53.6062 99.0903 54.4311 98.8155 55.0644 98.2672L64.7292 89.8753C65.0434 89.6039 65.3006 89.273 65.486 88.9015C65.6715 88.5301 65.7814 88.1256 65.8096 87.7115C65.8398 87.2974 65.7876 86.8815 65.6561 86.4878C65.5245 86.094 65.3163 85.7303 65.0433 85.4175C64.7714 85.1041 64.4402 84.8475 64.0689 84.6624C63.6975 84.4772 63.2933 84.3673 62.8793 84.3388L62.8785 84.3395Z" fill="#9733E7"/>
<path d="M56.9892 75.6159C40.7652 75.6159 27.8796 62.2919 27.3388 61.7247C27.1213 61.4968 27 61.1938 27 60.8787C27 60.5637 27.1213 60.2607 27.3388 60.0327C27.8796 59.4655 40.7644 46.1415 56.9892 46.1415C73.2132 46.1415 86.098 59.4655 86.6388 60.0327C86.8563 60.2607 86.9776 60.5637 86.9776 60.8787C86.9776 61.1938 86.8563 61.4968 86.6388 61.7247C86.098 62.2919 73.2124 75.6159 56.9892 75.6159ZM29.9836 60.8783C33.0876 63.7823 44.1116 73.1639 56.9892 73.1639C69.8644 73.1639 80.8884 63.7839 83.9932 60.8783C80.8892 57.9735 69.8652 48.5935 56.9892 48.5935C44.0908 48.5935 33.0828 57.9727 29.9836 60.8783Z" fill="#D6FF41"/>
<path d="M56.9901 72.1048C50.7997 72.1048 45.7637 67.0688 45.7637 60.8784C45.7637 54.688 50.7997 49.6528 56.9901 49.6528C63.1805 49.6528 68.2157 54.6888 68.2157 60.8784C68.2157 67.068 63.1797 72.1048 56.9901 72.1048ZM56.9901 52.1048C52.1517 52.1048 48.2157 56.0408 48.2157 60.8784C48.2157 65.716 52.1517 69.6528 56.9901 69.6528C61.8285 69.6528 65.7637 65.7168 65.7637 60.8784C65.7637 56.04 61.8277 52.1048 56.9901 52.1048Z" fill="#D6FF41"/>
<path d="M56.5671 42.2752C56.4061 42.2782 56.2461 42.2494 56.0963 42.1906C55.9464 42.1317 55.8096 42.0439 55.6937 41.9321C55.5778 41.8204 55.485 41.6869 55.4207 41.5392C55.3564 41.3916 55.3218 41.2328 55.3189 41.0718L55.186 33.6674C55.1802 33.3423 55.3038 33.0282 55.5295 32.7942C55.7553 32.5602 56.0647 32.4254 56.3898 32.4196C56.7149 32.4138 57.029 32.5373 57.2631 32.7631C57.4971 32.9888 57.6318 33.2983 57.6376 33.6234L57.7705 41.0278C57.7827 41.7045 57.2446 42.263 56.5671 42.2752ZM65.1639 43.0435C64.9664 43.0471 64.771 43.0029 64.5943 42.9148C64.4175 42.8266 64.2647 42.697 64.1489 42.5371C64.033 42.3771 63.9575 42.1915 63.9288 41.9961C63.9001 41.8007 63.9191 41.6013 63.9841 41.4148L66.4342 34.3753C66.541 34.0682 66.7655 33.8161 67.0582 33.6746C67.3508 33.533 67.6878 33.5135 67.9949 33.6203C68.3019 33.7272 68.554 33.9517 68.6956 34.2443C68.8371 34.537 68.8566 34.874 68.7498 35.181L66.2997 42.2197C66.2174 42.4567 66.0643 42.6628 65.8612 42.8101C65.6581 42.9574 65.4147 43.0388 65.1639 43.0435ZM74.0662 45.7225C73.8321 45.7268 73.6017 45.6639 73.4022 45.5413C73.2027 45.4187 73.0426 45.2415 72.9406 45.0307C72.8387 44.8199 72.7993 44.5843 72.827 44.3518C72.8548 44.1193 72.9486 43.8997 73.0973 43.7188L77.7444 38.0553C77.9532 37.8121 78.249 37.6604 78.5683 37.6325C78.8876 37.6047 79.2052 37.7029 79.453 37.9063C79.7007 38.1097 79.859 38.402 79.8939 38.7206C79.9289 39.0393 79.8377 39.3589 79.6398 39.6112L74.9927 45.2746C74.7555 45.5638 74.4133 45.7163 74.0662 45.7225ZM48.0106 43.3513C47.5115 43.3603 47.0373 43.0615 46.8452 42.5689L44.1449 35.6218C44.0272 35.3187 44.0348 34.9812 44.1659 34.6836C44.297 34.386 44.541 34.1527 44.8442 34.035C45.1473 33.9173 45.4848 33.9249 45.7824 34.056C46.08 34.1871 46.3133 34.4311 46.431 34.7343L49.1313 41.6813C49.2029 41.8654 49.229 42.064 49.2073 42.2603C49.1857 42.4566 49.1169 42.6448 49.0068 42.8088C48.8968 42.9728 48.7487 43.1078 48.5753 43.2022C48.4018 43.2967 48.2081 43.3478 48.0106 43.3513ZM39.2174 46.348C39.0397 46.3513 38.8633 46.3159 38.7006 46.2442C38.538 46.1725 38.3928 46.0663 38.2754 45.9328L33.4289 40.4405C33.2137 40.1966 33.1042 39.8772 33.1244 39.5526C33.1447 39.2279 33.2931 38.9247 33.537 38.7095C33.7809 38.4943 34.1003 38.3848 34.4249 38.405C34.7496 38.4253 35.0528 38.5737 35.268 38.8176L40.1146 44.3107C40.2694 44.4863 40.3707 44.7025 40.4066 44.9338C40.4424 45.1651 40.4114 45.4019 40.317 45.6161C40.2227 45.8303 40.069 46.013 39.8742 46.1427C39.6793 46.2724 39.4514 46.3436 39.2174 46.348Z" fill="#9733E7"/>
<path d="M39.8128 85.9177C40.1316 86.8368 39.6643 87.8255 38.7452 88.1443C37.826 88.463 36.819 87.9816 36.5328 87.0582L35.8499 85.1265L33.9181 85.8094C32.999 86.1282 31.9919 85.6468 31.6915 84.7418C31.3727 83.8227 31.84 82.834 32.7591 82.5152L34.6909 81.8323L34.008 79.9006C33.6892 78.9814 34.1564 77.9928 35.0756 77.674C35.9947 77.3552 36.9834 77.8224 37.3022 78.7416L37.9709 80.6918L39.9211 80.023C40.8402 79.7042 41.8289 80.1715 42.1477 81.0906C42.4664 82.0098 41.9992 82.9984 41.08 83.3172L39.1299 83.9859L39.8128 85.9177Z" fill="#D6FF41"/>
<path fill-rule="evenodd" clip-rule="evenodd" d="M84.0797 35.4996C84.2493 34.5993 85.0986 34.0037 85.9873 34.1235C89.837 34.65 91.9823 33.1664 92.9751 29.3348C93.1892 28.4451 94.0722 27.9047 94.9725 28.0744C95.8728 28.244 96.4684 29.0932 96.3433 30.0042C95.8168 33.8539 97.3004 35.9992 101.16 36.9751C102.049 37.1892 102.59 38.0722 102.42 38.9725C102.25 39.8729 101.401 40.4685 100.512 40.3487C96.6627 39.8221 94.5174 41.3058 93.5415 45.1649C93.3052 46.0492 92.4444 46.595 91.5441 46.4254C90.666 46.2611 90.0481 45.4065 90.1679 44.5177C90.6945 40.668 89.2108 38.5227 85.3739 37.5522C84.4558 37.2607 83.9101 36.3999 84.0797 35.4996ZM95.1337 37.5718C94.3104 37.9619 93.5493 38.4846 92.9003 39.1284C92.5156 38.2828 91.9875 37.544 91.3437 36.895C92.167 36.5049 92.9281 35.9822 93.5772 35.3384C93.9672 36.1617 94.4677 36.9174 95.1337 37.5718Z" fill="#D6FF41"/>
</svg>
