<svg width="130" height="130" viewBox="0 0 130 130" fill="none" xmlns="http://www.w3.org/2000/svg">
<rect width="130" height="130" rx="65" fill="#161616"/>
<g clip-path="url(#clip0_445_2122)">
<path d="M85.961 94.6178C85.7208 91.7831 85.929 88.9323 85.929 86.0815C85.945 80.9245 84.9681 76.344 83.6868 70.9147C83.1743 68.7206 81.6048 66.8948 80.1474 65.4053C77.0884 62.2823 74.0294 59.1592 70.9864 56.0362C70.3778 55.4116 69.8974 54.0502 69.9934 53.1534C70.2657 50.5428 70.7462 47.9323 71.3868 45.3858C71.563 44.7131 71.4509 44.0084 71.0985 43.4159C70.6661 42.6952 69.8974 42.2147 69.0645 42.1506C67.6231 42.0385 66.1977 42.1666 64.8044 42.519C64.5641 42.1346 64.2919 41.7823 63.9556 41.478C62.9626 40.5491 61.4251 40.5811 60.4802 41.526C59.4231 42.567 58.4141 43.544 57.4532 44.4889C57.197 43.1916 56.6204 41.9584 55.7395 40.9975C54.4903 39.5881 51.5114 38.1307 49.8778 39.6362C49.3813 40.0846 49.077 40.7092 49.045 41.3659C49.045 41.462 48.3403 53.1373 48.3563 53.2334C46.7548 54.5948 44.9931 56.2764 45.0571 58.6147C45.1532 61.8018 45.2013 65.101 45.6016 68.2561C44.5927 70.6745 43.7599 73.0768 43.1352 75.4631C42.863 76.5202 43.0071 77.6252 43.5196 78.5862C44.3845 80.1717 45.2173 81.5811 46.0501 82.8463C46.1302 83.2467 46.2583 83.6311 46.4505 83.9995C48.3884 87.8592 50.2782 90.8221 52.3923 93.2885C56.0118 97.5327 62.0977 99.0541 66.9024 101.601C67.2708 102.61 67.8153 103.619 68.1356 104.612C68.2958 105.124 68.7763 105.444 69.2727 105.444C70.0735 105.46 70.6661 104.644 70.4259 103.875C70.0575 102.674 69.4009 101.537 69.0325 100.399C68.9364 100.111 68.7442 99.8709 68.472 99.7108C66.8704 98.8139 65.1087 98.0612 63.411 97.3245C59.9837 95.835 56.4442 94.3135 54.2181 91.719C52.2321 89.3967 50.4384 86.61 48.5966 82.9104C48.3724 82.462 48.3083 81.9495 48.4204 81.469C49.4774 77.1768 51.047 72.9807 53.0649 69.0409C53.4013 68.3842 54.0259 67.9198 54.7306 67.7756C57.9817 67.167 61.313 66.7987 64.6282 66.6706C64.9806 66.6545 65.3329 66.7186 65.6532 66.8627C67.9434 67.8717 70.3458 69.5534 72.0114 71.6674C71.1786 72.8686 70.4579 73.285 69.2087 73.285C67.7352 73.285 66.3419 72.6444 65.6532 71.6354C65.413 71.2831 64.9966 71.0749 64.5641 71.1229C62.5782 71.2991 60.2079 71.4272 57.7415 71.1069C57.1169 71.0268 56.5403 71.4432 56.4122 72.0518C56.204 73.0448 55.8837 74.0217 55.5313 75.0467C55.179 76.1038 54.8106 77.1768 54.5864 78.2979C54.4743 78.8264 54.3302 79.4831 54.4263 80.1877C54.6345 81.7733 55.8837 82.8143 56.7005 83.503C57.213 83.9354 57.9657 83.8713 58.3981 83.3588C58.8306 82.8463 58.7665 82.0936 58.254 81.6612C57.5653 81.0846 56.8927 80.476 56.8126 79.8514C56.7806 79.5631 56.8606 79.1627 56.9407 78.7784C57.2931 77.0807 58.0298 75.335 58.5102 73.5893C60.5282 73.7655 62.4501 73.6854 64.1317 73.5573C65.3169 74.8866 67.1427 75.6553 69.1446 75.6874C71.2587 75.7034 72.7161 74.9026 74.0294 73.0127C74.4778 72.3881 74.5739 71.5553 74.2856 70.8346C73.8372 69.8096 72.9403 69.0729 72.1556 68.3041C73.4528 66.9588 73.3087 65.5655 71.9954 64.3002C69.9294 62.2022 67.511 60.5846 64.7884 59.4635C63.9235 59.1112 63.0106 59.0631 62.0817 59.1272C61.8415 56.6768 61.9696 55.1233 62.2899 52.9131C63.9395 50.4307 65.6852 47.8202 65.5731 44.7932C66.6622 44.537 67.7833 44.4409 68.9044 44.5209C68.9684 44.5209 69.0485 44.585 69.0645 44.617C69.0806 44.6491 69.0966 44.6971 69.0806 44.7612C68.4079 47.4198 67.9114 50.1424 67.6231 52.8651C67.447 54.4666 68.1677 56.5327 69.2888 57.6698C72.3477 60.7928 75.4067 63.9159 78.4497 67.0389C79.6829 68.2881 80.9802 69.7936 81.3645 71.4272C82.6138 76.7123 83.5587 81.1487 83.5427 86.0495C83.4306 91.9592 82.9501 98.7178 86.3934 103.539C87.3384 104.804 89.2282 103.523 88.3634 102.161C87.0181 100.271 86.2173 97.7409 85.961 94.6178ZM51.4794 41.4299C51.4954 41.4139 51.5274 41.3979 51.5595 41.3979C52.4884 41.51 53.3372 41.9424 53.9618 42.6311C54.9388 43.6721 55.3391 45.3217 55.1149 46.7791C53.7856 48.0764 52.3923 49.4377 50.8868 50.9112L51.4474 41.51C51.4474 41.478 51.4634 41.462 51.4794 41.4299ZM62.7224 61.5135C63.1227 61.4975 63.5071 61.5616 63.8755 61.7057C66.422 62.7788 68.7763 64.3163 70.602 66.3983C70.5059 66.5264 70.3938 66.6545 70.2817 66.7827C69.1126 65.9178 67.8634 65.1971 66.5981 64.6526C65.9415 64.3643 65.2368 64.2362 64.5321 64.2682C61.1048 64.3963 57.6614 64.7807 54.2821 65.4053C52.8407 65.6776 51.5755 66.6385 50.9188 67.9518C49.1091 71.5073 47.6356 75.2549 46.5626 79.0987C46.2583 78.5702 45.938 78.0096 45.6337 77.4331C45.4095 77.0166 45.3454 76.5362 45.4575 76.0717C46.4985 72.0518 48.1641 67.9518 50.3743 63.8678C50.7587 63.1952 51.4153 62.7307 52.2001 62.6026C55.6595 61.994 59.1989 61.6256 62.7224 61.5135ZM59.6634 59.2713C58.7024 59.3354 57.7415 59.4315 56.7806 59.5276C56.8766 59.0471 57.1329 58.6147 57.5173 58.2944C58.1739 57.7498 58.8626 57.0932 59.5352 56.3565C59.5352 57.2534 59.5673 58.1823 59.6634 59.2713ZM62.37 48.0604C61.2169 50.5588 58.3821 54.5147 56.0118 56.4366C54.9708 57.2694 54.3782 58.5186 54.3302 59.8319C53.4813 59.944 52.6325 60.0881 51.7837 60.2323C49.5735 60.6327 48.5325 61.994 47.6196 63.9159C47.5235 62.1221 47.4915 60.3444 47.4434 58.5506C47.4114 57.1733 48.9329 55.876 50.2942 54.7229C52.7767 52.5608 55.1309 50.0303 57.245 48.0284C58.7825 46.5229 60.3841 44.9694 62.1458 43.2237C62.1938 43.1756 62.2579 43.1756 62.3059 43.2237C63.6513 44.601 63.2349 46.1545 62.37 48.0604Z" fill="#D6FF41"/>
<path fill-rule="evenodd" clip-rule="evenodd" d="M40.4389 60.641C40.2071 59.912 39.4429 59.5045 38.7185 59.6939C35.5814 60.5204 33.6532 59.5082 32.4421 56.4334C32.1745 55.7178 31.388 55.3594 30.659 55.5913C29.93 55.8231 29.5225 56.5872 29.7186 57.3296C30.5451 60.4666 29.5329 62.3949 26.4335 63.5947C25.7179 63.8623 25.3596 64.6489 25.5914 65.3778C25.8232 66.1068 26.5874 66.5143 27.3118 66.325C30.4488 65.4985 32.3771 66.5106 33.577 69.61C33.8624 70.3189 34.6311 70.684 35.3601 70.4521C36.0711 70.227 36.4966 69.4562 36.3072 68.7317C35.4807 65.5947 36.4929 63.6664 39.5743 62.4733C40.3056 62.1386 40.6707 61.37 40.4389 60.641ZM31.4879 63.4786C32.2097 63.7184 32.8935 64.0745 33.4966 64.5422C33.7297 63.8025 34.0925 63.1367 34.5602 62.5335C33.8384 62.2937 33.1547 61.9376 32.5516 61.4699C32.3117 62.1917 31.9736 62.8688 31.4879 63.4786Z" fill="#9733E7"/>
<path d="M59.4962 33.237C59.6927 33.7649 59.6518 34.301 59.4419 34.7598C58.7368 36.3645 56.3701 36.3037 55.7656 34.6254L54.1414 30.2612C53.7616 29.2406 54.2919 28.0815 55.3126 27.7017C56.3332 27.3219 57.4922 27.8522 57.8721 28.8728L59.4962 33.237Z" fill="#9733E7"/>
<path d="M66.722 33.2726C66.4249 34.3048 65.2938 34.9261 64.2375 34.618C63.1812 34.3098 62.584 33.1898 62.8921 32.1335L64.2351 27.6668C65.1115 25.1769 68.713 26.2407 68.0649 28.806L66.722 33.2726Z" fill="#9733E7"/>
<path d="M72.5717 37.8473C70.5128 39.475 68.0498 36.6251 69.9838 34.8235L73.4922 31.8149C74.3225 31.0851 75.5617 31.1849 76.2914 32.0153C77.0212 32.8456 76.9103 34.109 76.0911 34.8145L72.5717 37.8473Z" fill="#9733E7"/>
<path d="M91.5213 46.3128L91.3313 45.3146L90.6564 46.0742C90.6319 46.1017 90.6081 46.1285 90.5847 46.1549C90.3977 46.3657 90.2425 46.5407 90.0643 46.7162L90.0642 46.7162L90.0579 46.7227C89.2568 47.5407 88.3976 48.2115 87.5406 48.7353L87.0156 49.0562L87.4371 49.5044C88.1607 50.274 88.7138 51.1606 89.1236 52.1408L89.3751 52.7424L89.8908 52.3433C90.7079 51.7111 91.6082 51.2256 92.6232 50.9114L93.2246 50.7253L92.9072 50.1817C92.2345 49.0296 91.7899 47.7233 91.5213 46.3128ZM85.9566 58.3953C86.397 56.1281 86.2659 54.2702 85.3912 52.7911C84.5155 51.3104 82.9542 50.3097 80.7592 49.6248C79.6738 49.2624 79.3487 48.3363 79.5602 47.5151C79.7724 46.691 80.5186 46.0072 81.6619 46.1729C83.2449 46.4635 85.1212 46.3752 87.0313 44.6333C88.9012 42.9279 90.7621 39.6732 92.4914 33.7766C93.2275 31.5783 96.4048 32.4396 95.9836 34.6746C94.581 40.7198 94.5788 44.4757 95.3475 46.8588C95.7359 48.063 96.3219 48.9191 97.0204 49.5339C97.713 50.1436 98.4919 50.4948 99.2385 50.7273C100.329 51.1045 100.65 52.0345 100.44 52.8443C100.229 53.6566 99.4877 54.3292 98.3416 54.1502C96.0426 53.7171 94.162 53.8464 92.6648 54.7051C91.1639 55.5659 90.1463 57.1031 89.4495 59.2672C88.6911 61.3921 85.6054 60.5557 85.9566 58.3953Z" fill="#9733E7" stroke="#161616"/>
<path d="M68.665 79.2746C67.2716 78.5058 68.2806 76.4719 69.738 77.1285C73.9822 79.2426 77.0091 83.6469 77.4576 88.3715C77.5216 89.0281 77.0412 89.6207 76.3845 89.6848H76.2724C75.6478 89.6848 75.1353 89.2203 75.0712 88.5957C74.7029 84.6879 72.1884 81.0203 68.665 79.2746Z" fill="#D6FF41"/>
</g>
<defs>
<clipPath id="clip0_445_2122">
<rect width="82" height="82" fill="white" transform="translate(24 24)"/>
</clipPath>
</defs>
</svg>
