<svg width="253" height="254" viewBox="0 0 253 254" fill="none" xmlns="http://www.w3.org/2000/svg">
<path d="M231.966 127.621L232.625 128.055C232.051 128.619 231.611 129.266 231.306 129.996C231.001 130.726 230.821 131.469 230.768 132.225C230.727 132.982 230.803 133.682 230.996 134.325C231.201 134.981 231.52 135.517 231.953 135.933C232.398 136.349 232.949 136.575 233.605 136.611C234.463 136.657 235.137 136.365 235.626 135.733C236.116 135.102 236.393 134.193 236.457 133.007L236.604 130.282L237.437 130.327L237.292 133.014C237.237 134.024 237.409 134.824 237.807 135.415C238.218 136.006 238.808 136.323 239.578 136.364C240.133 136.394 240.614 136.262 241.023 135.968C241.43 135.686 241.755 135.286 241.998 134.768C242.254 134.263 242.411 133.683 242.472 133.029C242.533 132.374 242.488 131.688 242.337 130.972C242.185 130.268 241.918 129.583 241.537 128.917L242.37 128.601C242.795 129.396 243.08 130.208 243.225 131.039C243.383 131.87 243.409 132.668 243.304 133.434C243.199 134.213 242.985 134.897 242.662 135.487C242.338 136.09 241.921 136.561 241.409 136.9C240.897 137.239 240.307 137.391 239.638 137.355C238.995 137.32 238.442 137.132 237.979 136.79C237.53 136.45 237.188 135.982 236.955 135.387C236.734 134.793 236.644 134.105 236.687 133.323L237.042 133.418C236.994 134.314 236.813 135.076 236.501 135.705C236.188 136.346 235.77 136.829 235.246 137.155C234.722 137.481 234.12 137.625 233.438 137.589C232.782 137.553 232.211 137.358 231.724 137.002C231.249 136.66 230.863 136.203 230.565 135.63C230.278 135.071 230.079 134.44 229.965 133.738C229.863 133.049 229.869 132.341 229.985 131.613C230.087 130.885 230.303 130.175 230.631 129.485C230.96 128.794 231.404 128.173 231.966 127.621Z" fill="white"/>
<path d="M229.731 138.622L241.747 146.919L241.58 147.871L227.461 151.597L227.641 150.57L241.104 147.076L241.032 147.487L229.551 139.649L229.731 138.622ZM233.023 141.469L233.77 141.926L232.402 149.748L231.544 149.925L233.023 141.469Z" fill="white"/>
<path d="M226.85 153.885L239.468 157.98L236.098 168.363L223.48 164.268L223.779 163.349L235.856 167.268L235.48 167.445L238.428 158.36L238.629 158.724L226.552 154.804L226.85 153.885Z" fill="white"/>
<path d="M219.179 173.532C219.62 172.65 220.176 171.904 220.848 171.294C221.526 170.7 222.278 170.257 223.102 169.963C223.933 169.686 224.786 169.575 225.662 169.631C226.549 169.693 227.422 169.939 228.281 170.368C229.14 170.797 229.855 171.345 230.426 172.012C231.008 172.684 231.432 173.433 231.697 174.257C231.969 175.099 232.065 175.967 231.986 176.859C231.913 177.769 231.656 178.665 231.216 179.546C230.775 180.428 230.216 181.165 229.538 181.759C228.866 182.369 228.12 182.815 227.301 183.098C226.482 183.381 225.629 183.491 224.741 183.429C223.86 183.384 222.984 183.144 222.114 182.71C221.244 182.275 220.52 181.716 219.944 181.032C219.373 180.365 218.955 179.62 218.689 178.795C218.423 177.97 218.327 177.103 218.4 176.193C218.479 175.3 218.739 174.413 219.179 173.532ZM219.976 173.93C219.598 174.687 219.377 175.453 219.315 176.227C219.254 177.001 219.341 177.744 219.579 178.456C219.816 179.168 220.187 179.812 220.69 180.388C221.187 180.975 221.809 181.455 222.554 181.828C223.312 182.206 224.069 182.415 224.826 182.455C225.589 182.511 226.326 182.42 227.038 182.183C227.75 181.945 228.397 181.57 228.978 181.055C229.56 180.541 230.04 179.905 230.419 179.148C230.797 178.391 231.017 177.625 231.079 176.851C231.141 176.077 231.056 175.328 230.824 174.605C230.587 173.893 230.22 173.244 229.722 172.656C229.231 172.086 228.606 171.611 227.849 171.233C227.103 170.86 226.349 170.645 225.586 170.589C224.817 170.544 224.077 170.64 223.365 170.878C222.648 171.127 221.998 171.508 221.416 172.022C220.834 172.537 220.354 173.173 219.976 173.93Z" fill="white"/>
<path d="M215.265 181.064C215.352 180.939 215.449 180.822 215.556 180.712C215.645 180.605 215.76 180.484 215.899 180.35L216.566 180.952C216.402 181.099 216.262 181.256 216.147 181.422C215.815 181.899 215.736 182.413 215.907 182.963C216.072 183.524 216.5 184.159 217.191 184.87C217.892 185.587 218.873 186.422 220.135 187.375L224.759 190.817L219.797 197.962L208.901 190.395L209.452 189.601L219.881 196.844L219.47 196.904L223.697 190.818L223.784 191.224L219.642 188.118C218.571 187.312 217.681 186.579 216.971 185.917C216.272 185.262 215.744 184.649 215.387 184.078C215.022 183.518 214.831 182.985 214.813 182.48C214.797 181.992 214.948 181.52 215.265 181.064Z" fill="white"/>
<path d="M209.22 210.092L208.562 210.8L198.847 201.766L199.505 201.058L209.22 210.092ZM205.544 194.563L206.202 193.855L215.917 202.889L215.259 203.597L205.544 194.563ZM204.049 205.439L210.243 198.777L210.868 199.358L204.673 206.02L204.049 205.439Z" fill="white"/>
<path d="M195.498 204.928L203.801 215.274L203.048 215.879L195.764 206.804L195.998 221.537L195.333 222.071L187.029 211.725L187.783 211.12L195.054 220.18L194.833 205.462L195.498 204.928Z" fill="white"/>
<path d="M180.883 215.682L187.541 226.494L187.14 226.385L191.449 223.731L191.906 224.474L182.95 229.989L182.493 229.247L186.801 226.593L186.718 227.001L180.06 216.189L180.883 215.682Z" fill="white"/>
<path d="M172.725 229.581C171.315 230.234 170.091 230.417 169.054 230.132C168.016 229.846 167.211 229.085 166.638 227.846C166.048 226.574 165.995 225.422 166.479 224.391C166.955 223.376 167.933 222.527 169.412 221.842L174.021 219.707L179.596 231.745L178.719 232.151L176.68 227.749L172.725 229.581ZM169.738 222.589C168.534 223.147 167.744 223.832 167.37 224.646C166.995 225.46 167.046 226.383 167.524 227.415C167.997 228.436 168.657 229.049 169.504 229.255C170.345 229.478 171.373 229.308 172.589 228.746L176.337 227.009L173.486 220.853L169.738 222.589Z" fill="white"/>
<path d="M157.107 226.665L160.479 239.495L151.333 241.899L151.116 241.074L159.327 238.916L158.113 234.297L153.77 235.439C152.267 235.834 151.044 235.829 150.101 235.424C149.159 235.018 148.531 234.223 148.22 233.038C147.896 231.803 148.064 230.753 148.724 229.887C149.376 229.037 150.496 228.403 152.084 227.985L157.107 226.665ZM156.379 227.699L152.273 228.778C150.99 229.115 150.083 229.615 149.552 230.277C149.024 230.952 148.888 231.778 149.145 232.755C149.649 234.674 151.203 235.291 153.805 234.607L157.911 233.527L156.379 227.699Z" fill="white"/>
<path d="M143.995 229.823L145.677 242.981L140.959 243.585C139.856 243.726 138.887 243.671 138.053 243.421C137.218 243.171 136.546 242.741 136.035 242.132C135.525 241.535 135.21 240.766 135.09 239.826C134.973 238.911 135.085 238.094 135.427 237.376C135.768 236.657 136.311 236.072 137.055 235.62C137.8 235.168 138.724 234.872 139.827 234.731L144.019 234.195L143.644 234.701L143.036 229.945L143.995 229.823ZM143.637 234.645L144.129 235.06L139.937 235.595C138.521 235.777 137.489 236.221 136.84 236.928C136.181 237.649 135.924 238.573 136.068 239.701C136.214 240.842 136.695 241.672 137.513 242.191C138.32 242.725 139.432 242.901 140.848 242.72L145.04 242.184L144.668 242.709L143.637 234.645Z" fill="white"/>
<path d="M130.232 231.326L130.028 244.59L129.061 244.575L129.241 232.94L120.023 244.435L119.17 244.422L119.375 231.158L120.341 231.173L120.162 242.789L129.38 231.312L130.232 231.326Z" fill="white"/>
<path d="M108.684 230.736C110.204 230.99 111.476 231.427 112.5 232.046C113.521 232.678 114.262 233.461 114.72 234.396C115.164 235.341 115.288 236.406 115.09 237.59C114.89 238.786 114.427 239.753 113.702 240.49C112.963 241.237 112.008 241.738 110.839 241.991C109.667 242.256 108.321 242.262 106.801 242.008C106.788 242.006 106.77 242.003 106.745 241.998C106.707 241.992 106.67 241.986 106.633 241.98C106.595 241.973 106.57 241.969 106.558 241.967C105.025 241.711 103.748 241.267 102.726 240.635C101.69 240.014 100.95 239.231 100.506 238.286C100.047 237.351 99.9175 236.285 100.117 235.089C100.315 233.905 100.784 232.939 101.523 232.192C102.249 231.455 103.197 230.954 104.369 230.688C105.538 230.435 106.889 230.437 108.422 230.693C108.434 230.695 108.459 230.699 108.497 230.705C108.534 230.711 108.571 230.718 108.609 230.724C108.646 230.73 108.671 230.734 108.684 230.736ZM108.422 231.5C108.409 231.498 108.397 231.495 108.384 231.493C108.359 231.489 108.341 231.486 108.328 231.484C106.98 231.272 105.795 231.272 104.773 231.486C103.739 231.697 102.906 232.122 102.274 232.759C101.63 233.394 101.222 234.229 101.049 235.264C100.876 236.298 100.992 237.214 101.397 238.012C101.787 238.82 102.431 239.491 103.328 240.025C104.223 240.572 105.343 240.957 106.689 241.182C106.701 241.184 106.72 241.187 106.745 241.191C106.77 241.196 106.789 241.199 106.801 241.201C108.159 241.428 109.362 241.437 110.409 241.227C111.443 241.016 112.283 240.592 112.927 239.957C113.571 239.322 113.98 238.481 114.155 237.434C114.328 236.399 114.213 235.477 113.81 234.667C113.395 233.855 112.733 233.18 111.823 232.644C110.901 232.106 109.767 231.724 108.422 231.5ZM109.223 229.462L106.9 243.369L105.984 243.216L108.307 229.309L109.223 229.462Z" fill="white"/>
<path d="M92.9833 225.087L88.4647 230.331L92.0578 235.591L86.069 233.163L81.2247 238.806L81.6783 231.383L75.6895 228.954L81.9315 227.682L82.3755 220.786L86.0811 226.828L92.9833 225.087ZM89.9762 226.956L85.547 228.146L83.1971 224.207L83.0322 228.598L79.1294 229.347L82.8351 230.85L82.5065 235.645L85.6276 231.982L89.3508 233.491L87.0365 230.222L89.9762 226.956Z" fill="#D6FF41"/>
<path d="M72.6621 218.619L71.9549 218.971C71.757 218.191 71.4194 217.485 70.9421 216.854C70.4648 216.223 69.9129 215.694 69.2863 215.267C68.6528 214.851 68.0096 214.564 67.3568 214.407C66.6865 214.254 66.0628 214.26 65.4857 214.425C64.9017 214.601 64.4293 214.963 64.0685 215.512C63.5967 216.23 63.5105 216.96 63.8098 217.701C64.1091 218.441 64.755 219.138 65.7475 219.79L68.0282 221.289L67.5703 221.986L65.3213 220.508C64.4766 219.953 63.6987 219.699 62.9877 219.745C62.2697 219.803 61.6991 220.153 61.2759 220.798C60.9706 221.262 60.8424 221.745 60.8913 222.246C60.9297 222.739 61.1116 223.222 61.4371 223.693C61.7452 224.167 62.1668 224.595 62.7019 224.977C63.2371 225.359 63.8524 225.665 64.5477 225.895C65.2325 226.119 65.9587 226.233 66.7261 226.238L66.5796 227.117C65.6788 227.084 64.8332 226.922 64.0428 226.629C63.2455 226.347 62.5421 225.968 61.9327 225.492C61.3128 225.009 60.8292 224.48 60.4819 223.904C60.1241 223.321 59.9274 222.723 59.8917 222.11C59.8561 221.497 60.0222 220.911 60.3899 220.351C60.7437 219.813 61.1844 219.43 61.712 219.202C62.2327 218.985 62.8087 218.925 63.4401 219.022C64.0646 219.13 64.7041 219.399 65.3588 219.829L65.0977 220.089C64.348 219.596 63.7803 219.057 63.3944 218.471C62.998 217.878 62.7907 217.273 62.7726 216.656C62.7544 216.04 62.9327 215.446 63.3073 214.876C63.6681 214.327 64.1245 213.931 64.6766 213.689C65.2111 213.451 65.8009 213.347 66.4458 213.378C67.0733 213.412 67.719 213.557 68.383 213.812C69.0295 214.07 69.6382 214.433 70.2089 214.898C70.7867 215.353 71.2914 215.897 71.7231 216.528C72.1548 217.16 72.4678 217.856 72.6621 218.619Z" fill="white"/>
<path d="M64.2211 211.105L50.9966 217.297L50.2585 216.673L54.1625 202.602L54.9585 203.275L51.1855 216.662L50.8671 216.393L63.4251 210.432L64.2211 211.105ZM60.1031 212.513L59.331 212.927L53.2669 207.801L53.5469 206.97L60.1031 212.513Z" fill="white"/>
<path d="M52.6274 201.038L42.7821 209.929L35.4659 201.828L45.3112 192.937L45.959 193.654L36.5357 202.164L36.5702 201.75L42.9719 208.839L42.5563 208.831L51.9796 200.321L52.6274 201.038Z" fill="white"/>
<path d="M39.4406 184.565C39.9848 185.387 40.3537 186.241 40.5472 187.128C40.7233 188.012 40.7329 188.884 40.5761 189.746C40.4019 190.604 40.0718 191.398 39.5861 192.129C39.0898 192.867 38.4414 193.501 37.6408 194.031C36.8403 194.561 36.0088 194.907 35.1463 195.07C34.2733 195.239 33.413 195.233 32.5656 195.051C31.7006 194.866 30.901 194.517 30.1667 194.003C29.4149 193.486 28.7669 192.817 28.2227 191.995C27.6785 191.173 27.3184 190.321 27.1424 189.437C26.9488 188.55 26.9339 187.681 27.0976 186.83C27.2614 185.979 27.5914 185.185 28.0877 184.447C28.5665 183.705 29.2114 183.066 30.0225 182.529C30.8335 181.992 31.6791 181.644 32.5591 181.485C33.4216 181.323 34.2765 181.333 35.124 181.514C35.9714 181.695 36.7711 182.044 37.5229 182.562C38.2572 183.076 38.8965 183.743 39.4406 184.565ZM38.698 185.057C38.2306 184.351 37.6769 183.778 37.037 183.338C36.3971 182.898 35.7094 182.604 34.974 182.454C34.2386 182.305 33.4957 182.304 32.7454 182.453C31.9881 182.591 31.2618 182.89 30.5666 183.35C29.8609 183.818 29.3021 184.37 28.8902 185.006C28.4608 185.639 28.1714 186.323 28.022 187.059C27.8726 187.794 27.8757 188.542 28.0311 189.303C28.1864 190.064 28.4979 190.797 28.9653 191.503C29.4327 192.209 29.9864 192.782 30.6263 193.222C31.2662 193.662 31.9574 193.961 32.6998 194.121C33.4352 194.271 34.1816 194.277 34.9389 194.139C35.6786 193.997 36.4014 193.693 37.1071 193.225C37.8023 192.765 38.3646 192.218 38.794 191.585C39.2165 190.942 39.5024 190.252 39.6518 189.517C39.7942 188.771 39.7877 188.018 39.6323 187.257C39.4769 186.496 39.1655 185.763 38.698 185.057Z" fill="white"/>
<path d="M34.8802 177.427C34.9449 177.565 34.9982 177.707 35.0401 177.855C35.088 177.986 35.1353 178.145 35.1819 178.333L34.3279 178.61C34.2819 178.395 34.2158 178.195 34.1295 178.012C33.8813 177.487 33.4761 177.161 32.9138 177.036C32.3461 176.898 31.5819 176.952 30.6213 177.196C29.6492 177.445 28.4357 177.879 26.9806 178.496L21.6901 180.784L17.9761 172.918L29.972 167.254L30.3847 168.128L18.9029 173.549L19.0557 173.163L22.2194 179.863L21.8239 179.736L26.5832 177.698C27.8158 177.172 28.8959 176.767 29.8235 176.483C30.7397 176.204 31.5343 176.052 32.2074 176.028C32.8751 175.992 33.4324 176.092 33.8792 176.328C34.3092 176.558 34.6428 176.925 34.8802 177.427Z" fill="white"/>
<path d="M12.8131 157.842L12.5286 156.918L25.207 153.014L25.4915 153.938L12.8131 157.842ZM28.1016 162.415L28.386 163.338L15.7076 167.242L15.4232 166.319L28.1016 162.415ZM19.4267 155.687L22.1038 164.38L21.2887 164.631L18.6117 155.938L19.4267 155.687Z" fill="white"/>
<path d="M24.0854 148.296L10.9614 150.231L10.8204 149.275L22.3321 147.578L9.50218 140.331L9.37782 139.488L22.5019 137.553L22.6428 138.509L11.1499 140.203L23.9611 147.452L24.0854 148.296Z" fill="white"/>
<path d="M22.1653 130.372L9.47134 130.666L9.7679 130.375L9.88507 135.434L9.01355 135.454L8.76998 124.939L9.64151 124.919L9.75868 129.977L9.44896 129.7L22.1429 129.406L22.1653 130.372Z" fill="white"/>
<path d="M14.2403 116.228C14.384 114.681 14.8397 113.53 15.6075 112.777C16.3753 112.023 17.4385 111.71 18.7971 111.836C20.1935 111.965 21.2163 112.498 21.8653 113.434C22.503 114.356 22.7465 115.628 22.5959 117.251L22.1265 122.308L8.91745 121.082L9.00677 120.12L13.8375 120.568L14.2403 116.228ZM21.7862 117.157C21.9088 115.836 21.7123 114.809 21.1967 114.076C20.6811 113.343 19.8571 112.924 18.7249 112.819C17.6053 112.715 16.7435 112.977 16.1395 113.606C15.5241 114.222 15.1545 115.196 15.0307 116.53L14.6489 120.643L21.4044 121.27L21.7862 117.157Z" fill="white"/>
<path d="M24.6512 103.841L11.8739 100.274L14.4165 91.1656L15.2379 91.3949L12.9552 99.5724L17.555 100.856L18.7626 96.5304C19.1804 95.0336 19.8023 93.9808 20.6281 93.3718C21.454 92.7628 22.4571 92.6231 23.6375 92.9526C24.8665 93.2957 25.6881 93.971 26.102 94.9785C26.5072 95.9705 26.489 97.2575 26.0474 98.8394L24.6512 103.841ZM24.1262 102.691L25.2676 98.6021C25.6243 97.3243 25.6509 96.289 25.3476 95.496C25.0321 94.6996 24.3876 94.1655 23.4141 93.8937C21.5036 93.3604 20.1866 94.3897 19.463 96.9817L18.3216 101.07L24.1262 102.691Z" fill="white"/>
<path d="M28.3771 91.2999L16.1592 86.1321L18.0122 81.7511C18.4453 80.7272 18.9798 79.9175 19.6157 79.3223C20.2515 78.727 20.9615 78.362 21.7456 78.2272C22.518 78.0875 23.3405 78.2022 24.2132 78.5713C25.0627 78.9306 25.7121 79.4385 26.1615 80.095C26.6108 80.7514 26.8434 81.5151 26.8591 82.386C26.8749 83.2569 26.6662 84.2043 26.2331 85.2283L24.5868 89.1206L24.3377 88.5419L28.7536 90.4097L28.3771 91.2999ZM24.3901 88.5641L23.7839 88.781L25.4302 84.8887C25.9864 83.5738 26.1221 82.4584 25.8374 81.5423C25.5459 80.6097 24.8766 79.9219 23.8294 79.479C22.7705 79.0311 21.8108 79.0298 20.9502 79.4752C20.0829 79.904 19.3712 80.7759 18.8151 82.0907L17.1688 85.983L16.9022 85.397L24.3901 88.5641Z" fill="white"/>
<path d="M33.8618 78.8373L22.49 72.0061L22.9877 71.1776L32.9624 77.1695L27.6427 63.4285L28.0819 62.6975L39.4537 69.5287L38.956 70.3572L28.9975 64.375L34.301 78.1062L33.8618 78.8373Z" fill="white"/>
<path d="M45.2853 60.3444C44.2988 61.5287 43.2799 62.4065 42.2285 62.9778C41.1675 63.541 40.1177 63.7846 39.0792 63.7088C38.039 63.6153 37.0578 63.1844 36.1356 62.4162C35.2037 61.64 34.6025 60.7528 34.3321 59.7548C34.0601 58.739 34.11 57.6624 34.4818 56.5252C34.8439 55.3798 35.5182 54.2149 36.5047 53.0306C36.5128 53.0209 36.5249 53.0063 36.5411 52.9869C36.5654 52.9578 36.5896 52.9287 36.6139 52.8995C36.6381 52.8704 36.6543 52.851 36.6624 52.8413C37.657 51.6473 38.6848 50.7687 39.7458 50.2055C40.8053 49.6245 41.855 49.3808 42.8952 49.4744C43.9337 49.5502 44.919 49.9762 45.8509 50.7525C46.7731 51.5206 47.3703 52.4126 47.6422 53.4285C47.9126 54.4265 47.8668 55.4982 47.5047 56.6435C47.1329 57.7808 46.4497 58.9465 45.4551 60.1405C45.447 60.1502 45.4308 60.1696 45.4066 60.1988C45.3823 60.2279 45.3581 60.257 45.3338 60.2861C45.3095 60.3153 45.2934 60.3347 45.2853 60.3444ZM44.7586 59.733C44.7667 59.7233 44.7748 59.7136 44.7829 59.7039C44.799 59.6845 44.8112 59.6699 44.8193 59.6602C45.6828 58.6037 46.2803 57.5804 46.6117 56.5904C46.9512 55.5906 47.0052 54.6572 46.7737 53.7902C46.5502 52.9135 46.0356 52.1396 45.2299 51.4684C44.4242 50.7973 43.5748 50.4351 42.6819 50.3819C41.7873 50.311 40.8831 50.5279 39.9693 51.0328C39.0457 51.5297 38.1473 52.3023 37.274 53.3507C37.2659 53.3604 37.2538 53.375 37.2376 53.3944C37.2214 53.4138 37.2093 53.4284 37.2012 53.4381C36.3198 54.4962 35.7054 55.53 35.3578 56.5395C35.0183 57.5393 34.9603 58.4775 35.1837 59.3542C35.4072 60.2309 35.9266 61.0089 36.742 61.6881C37.5478 62.3593 38.402 62.7255 39.3046 62.7867C40.2154 62.8383 41.1317 62.6068 42.0536 62.0922C42.9837 61.5678 43.8853 60.7815 44.7586 59.733ZM46.113 61.4531L35.2792 52.4291L35.8735 51.7156L46.7073 60.7396L46.113 61.4531Z" fill="white"/>
<path d="M57.7925 49.7925L55.5126 43.2569L49.1602 43.7366L54.2586 39.7656L51.7955 32.7481L57.9964 36.8543L63.0947 32.8833L61.0744 38.9249L66.8231 42.7588L59.7375 42.9448L57.7925 49.7925ZM57.6787 46.2539L58.8641 41.8235L63.4499 41.7588L59.7301 39.4194L61.034 35.6655L57.8793 38.1226L53.8916 35.4393L55.502 39.9742L52.3324 42.443L56.3212 42.0746L57.6787 46.2539Z" fill="#D6FF41"/>
<path d="M73.5531 35.3466L73.6012 34.5582C74.376 34.7759 75.156 34.8353 75.941 34.7366C76.726 34.6378 77.4598 34.4234 78.1424 34.0933C78.8192 33.752 79.3884 33.3375 79.8501 32.85C80.3173 32.3455 80.6233 31.8021 80.7682 31.2196C80.9074 30.6258 80.8291 30.0357 80.5333 29.4491C80.1464 28.682 79.5573 28.2433 78.7659 28.133C77.9744 28.0228 77.0486 28.235 75.9882 28.7698L73.5515 29.9987L73.176 29.2542L75.5788 28.0423C76.4813 27.5872 77.0896 27.0399 77.4038 26.4003C77.7123 25.7495 77.6931 25.08 77.346 24.3919C77.0957 23.8955 76.7413 23.5436 76.283 23.3361C75.8358 23.123 75.327 23.04 74.7565 23.0871C74.1916 23.1174 73.6102 23.2691 73.0122 23.5424C72.4142 23.8157 71.842 24.1962 71.2957 24.684C70.7606 25.1661 70.2992 25.7384 69.9117 26.4008L69.2232 25.8353C69.7008 25.0709 70.2636 24.4192 70.9115 23.8802C71.5537 23.3299 72.2331 22.9094 72.9497 22.6188C73.6775 22.3225 74.3776 22.1675 75.0499 22.1538C75.7335 22.1345 76.3499 22.2624 76.8989 22.5373C77.4479 22.8123 77.8732 23.2487 78.1747 23.8466C78.4649 24.4219 78.577 24.995 78.5112 25.5659C78.4397 26.1255 78.2042 26.6546 77.8048 27.1532C77.3996 27.6405 76.8474 28.0606 76.148 28.4133L76.0535 28.0577C76.8544 27.6537 77.6051 27.4308 78.3056 27.3888C79.0174 27.3411 79.645 27.4633 80.1884 27.7552C80.7318 28.0471 81.1572 28.4977 81.4644 29.1068C81.7602 29.6934 81.8753 30.2863 81.8095 30.8854C81.7494 31.4676 81.5451 32.0305 81.1967 32.5741C80.8538 33.1008 80.4063 33.5883 79.8542 34.0365C79.3076 34.4678 78.6901 34.8146 78.0017 35.0769C77.319 35.3505 76.5963 35.5169 75.8337 35.576C75.0712 35.6351 74.3109 35.5587 73.5531 35.3466Z" fill="white"/>
<path d="M83.9237 31.8923L85.1407 17.3411L86.0494 17.0117L96.3067 27.4045L95.3267 27.7596L85.5968 17.8208L85.9887 17.6787L84.9037 31.5372L83.9237 31.8923ZM84.7541 27.6204L84.7793 26.7445L92.2447 24.0388L92.8252 24.6952L84.7541 27.6204Z" fill="white"/>
<path d="M98.5293 26.7556L95.7955 13.7745L106.477 11.525L109.211 24.5061L108.265 24.7053L105.648 12.2805L105.989 12.5186L96.6427 14.487L96.8584 14.1317L99.4751 26.5565L98.5293 26.7556Z" fill="white"/>
<path d="M119.694 23.539C118.71 23.596 117.786 23.485 116.922 23.2061C116.07 22.9137 115.311 22.4831 114.645 21.9143C113.991 21.332 113.471 20.6472 113.083 19.8597C112.695 19.0596 112.474 18.1802 112.418 17.2216C112.362 16.263 112.482 15.3703 112.775 14.5433C113.068 13.7037 113.506 12.9633 114.089 12.3221C114.684 11.6675 115.388 11.1521 116.202 10.776C117.027 10.3864 117.932 10.1632 118.916 10.1062C119.899 10.0492 120.817 10.1668 121.67 10.4591C122.534 10.7381 123.292 11.1624 123.945 11.732C124.598 12.3016 125.119 12.9865 125.507 13.7866C125.907 14.5734 126.135 15.4524 126.191 16.4236C126.248 17.3948 126.123 18.3005 125.817 19.1408C125.524 19.9678 125.085 20.7019 124.502 21.3431C123.919 21.9844 123.215 22.4997 122.39 22.8893C121.576 23.2654 120.678 23.482 119.694 23.539ZM119.642 22.6498C120.487 22.6008 121.261 22.4105 121.963 22.0787C122.665 21.747 123.266 21.3009 123.765 20.7404C124.264 20.18 124.638 19.5382 124.887 18.8151C125.149 18.0912 125.256 17.313 125.208 16.4806C125.159 15.6355 124.963 14.8749 124.62 14.1987C124.289 13.5092 123.843 12.9149 123.283 12.4158C122.722 11.9168 122.074 11.5431 121.338 11.2946C120.603 11.0462 119.812 10.9464 118.967 10.9954C118.122 11.0444 117.348 11.2347 116.646 11.5665C115.944 11.8982 115.337 12.3447 114.826 12.9059C114.326 13.4663 113.946 14.1085 113.684 14.8323C113.434 15.5428 113.334 16.3206 113.383 17.1657C113.431 17.9982 113.621 18.7592 113.952 19.4487C114.295 20.1375 114.747 20.7314 115.308 21.2304C115.881 21.7288 116.535 22.1021 117.271 22.3506C118.007 22.599 118.797 22.6988 119.642 22.6498Z" fill="white"/>
<path d="M128.85 23.1694C128.699 23.156 128.549 23.13 128.4 23.0914C128.263 23.0665 128.102 23.0268 127.916 22.9722L128.108 22.0951C128.318 22.1645 128.523 22.2081 128.725 22.226C129.304 22.2775 129.789 22.0924 130.182 21.6707C130.587 21.2501 130.927 20.5637 131.202 19.6115C131.478 18.6467 131.718 17.3805 131.921 15.8131L132.62 10.0913L141.284 10.8619L140.109 24.0756L139.146 23.99L140.271 11.3426L140.527 11.6698L133.147 11.0134L133.457 10.7366L132.81 15.8731C132.641 17.2026 132.444 18.3394 132.221 19.2835C131.998 20.215 131.728 20.9773 131.409 21.5705C131.102 22.1647 130.734 22.595 130.304 22.8612C129.889 23.1159 129.404 23.2187 128.85 23.1694Z" fill="white"/>
<path d="M156.649 13.9353L157.59 14.156L154.56 27.0712L153.619 26.8505L156.649 13.9353ZM144.985 24.8248L144.044 24.604L147.074 11.6888L148.015 11.9096L144.985 24.8248ZM155.172 20.7325L146.315 18.6548L146.51 17.8246L155.366 19.9023L155.172 20.7325Z" fill="white"/>
<path d="M159.339 28.4866L164.278 16.1743L165.175 16.5341L160.843 27.3338L173.565 19.8993L174.356 20.2167L169.418 32.5291L168.521 32.1693L172.845 21.3872L160.131 28.8041L159.339 28.4866Z" fill="white"/>
<path d="M176.017 35.9744L182.191 24.8791L182.292 25.2823L177.87 22.8219L178.294 22.0602L187.485 27.1745L187.061 27.9362L182.64 25.4758L183.035 25.3491L176.861 36.4443L176.017 35.9744Z" fill="white"/>
<path d="M191.807 36.0107C193.07 36.9156 193.834 37.8897 194.097 38.9328C194.359 39.9759 194.094 41.0521 193.299 42.1614C192.482 43.3015 191.506 43.9155 190.371 44.0036C189.253 44.0888 188.032 43.6568 186.707 42.7077L182.578 39.7501L190.303 28.9656L191.089 29.5284L188.264 33.4725L191.807 36.0107ZM187.197 42.0563C188.275 42.8288 189.261 43.1775 190.154 43.1023C191.047 43.0271 191.825 42.5273 192.487 41.6029C193.142 40.6888 193.35 39.8123 193.112 38.9733C192.891 38.1315 192.236 37.3206 191.148 36.5408L187.789 34.135L183.838 39.6505L187.197 42.0563Z" fill="white"/>
<path d="M196.993 50.9752L206.476 41.6976L213.089 48.457L212.48 49.0534L206.542 42.9849L203.128 46.3248L206.269 49.5352C207.356 50.6459 207.957 51.7112 208.071 52.7309C208.185 53.7507 207.804 54.6891 206.928 55.5461C206.016 56.4386 205.02 56.8119 203.94 56.6661C202.879 56.5205 201.774 55.8607 200.625 54.6868L196.993 50.9752ZM198.252 51.0961L201.221 54.1304C202.148 55.0786 203.031 55.6198 203.87 55.754C204.717 55.8794 205.502 55.5887 206.225 54.8818C207.642 53.4946 207.41 51.8392 205.528 49.9157L202.559 46.8815L198.252 51.0961Z" fill="white"/>
<path d="M206.499 61.0763L217.112 53.1168L219.966 56.9222C220.633 57.8117 221.064 58.6809 221.259 59.5299C221.453 60.3789 221.411 61.1761 221.133 61.9216C220.866 62.6594 220.353 63.3126 219.595 63.8811C218.857 64.4345 218.091 64.7402 217.298 64.7983C216.504 64.8564 215.727 64.6732 214.967 64.2487C214.206 63.8242 213.492 63.1672 212.825 62.2778L210.29 58.8969L210.915 58.9727L207.079 61.8495L206.499 61.0763ZM210.87 59.0068L210.987 58.3738L213.523 61.7547C214.379 62.8969 215.275 63.5753 216.21 63.7901C217.163 64.0074 218.094 63.775 219.003 63.0927C219.923 62.4029 220.407 61.5741 220.455 60.6063C220.521 59.6411 220.125 58.5874 219.269 57.4453L216.733 54.0644L217.374 54.1288L210.87 59.0068Z" fill="white"/>
<path d="M214.157 71.5315L225.749 65.081L226.219 65.9256L216.052 71.5836L230.615 73.8247L231.03 74.5699L219.438 81.0204L218.968 80.1758L229.119 74.5271L214.572 72.2767L214.157 71.5315Z" fill="white"/>
<path d="M224.581 90.8875C224.05 89.4403 223.801 88.1187 223.834 86.9227C223.878 85.7222 224.193 84.6916 224.779 83.8308C225.381 82.9776 226.246 82.3443 227.373 81.9311C228.511 81.5136 229.58 81.4378 230.579 81.7039C231.595 81.9775 232.501 82.5601 233.299 83.4517C234.109 84.339 234.779 85.5062 235.31 86.9533C235.314 86.9652 235.321 86.983 235.33 87.0067C235.343 87.0423 235.356 87.0779 235.369 87.1135C235.382 87.1491 235.391 87.1728 235.395 87.1846C235.93 88.6437 236.175 89.9734 236.131 91.1738C236.103 92.3817 235.788 93.4123 235.186 94.2656C234.6 95.1264 233.737 95.7656 232.599 96.1831C231.472 96.5963 230.401 96.6661 229.385 96.3925C228.386 96.1264 227.482 95.5498 226.672 94.6625C225.874 93.7709 225.207 92.5956 224.672 91.1366C224.668 91.1247 224.659 91.101 224.646 91.0654C224.633 91.0298 224.62 90.9942 224.607 90.9587C224.594 90.9231 224.585 90.8993 224.581 90.8875ZM225.374 90.738C225.378 90.7499 225.383 90.7617 225.387 90.7736C225.396 90.7973 225.402 90.8151 225.407 90.827C225.888 92.1037 226.474 93.1335 227.165 93.9164C227.86 94.7111 228.641 95.2255 229.507 95.4596C230.378 95.7055 231.306 95.648 232.29 95.287C233.275 94.926 234.014 94.3724 234.507 93.6263C235.017 92.8877 235.282 91.9964 235.303 90.9526C235.336 89.9044 235.117 88.7397 234.648 87.4587C234.643 87.4468 234.637 87.429 234.628 87.4053C234.619 87.3816 234.613 87.3638 234.608 87.3519C234.134 86.059 233.548 85.0092 232.848 84.2026C232.153 83.4079 231.37 82.8875 230.499 82.6416C229.629 82.3957 228.695 82.4554 227.699 82.8208C226.714 83.1818 225.969 83.7375 225.464 84.488C224.963 85.2503 224.704 86.1593 224.688 87.215C224.675 88.2826 224.904 89.4569 225.374 90.738ZM223.207 91.0482L236.445 86.1942L236.764 87.066L223.527 91.9201L223.207 91.0482Z" fill="white"/>
<path d="M227.435 107.078L234.23 108.394L237.01 102.662L237.879 109.065L245.183 110.465L238.516 113.76L239.384 120.164L235.178 115.38L228.973 118.421L232.376 112.203L227.435 107.078ZM230.551 108.759L233.784 112.011L231.534 116.008L235.427 113.969L238.016 116.984L237.478 113.021L241.803 110.924L237.073 110.035L236.533 106.054L234.846 109.687L230.551 108.759Z" fill="#D6FF41"/>
</svg>
