<svg width="64" height="64" viewBox="0 0 64 64" fill="none" xmlns="http://www.w3.org/2000/svg">
<rect width="64" height="64" rx="32" />
<path d="M32.004 16H31.996C23.174 16 16 23.176 16 32C16 35.5 17.128 38.744 19.046 41.378L17.052 47.322L23.202 45.356C25.732 47.032 28.75 48 32.004 48C40.826 48 48 40.822 48 32C48 23.178 40.826 16 32.004 16ZM41.314 38.594C40.928 39.684 39.396 40.588 38.174 40.852C37.338 41.03 36.246 41.172 32.57 39.648C27.868 37.7 24.84 32.922 24.604 32.612C24.378 32.302 22.704 30.082 22.704 27.786C22.704 25.49 23.87 24.372 24.34 23.892C24.726 23.498 25.364 23.318 25.976 23.318C26.174 23.318 26.352 23.328 26.512 23.336C26.982 23.356 27.218 23.384 27.528 24.126C27.914 25.056 28.854 27.352 28.966 27.588C29.08 27.824 29.194 28.144 29.034 28.454C28.884 28.774 28.752 28.916 28.516 29.188C28.28 29.46 28.056 29.668 27.82 29.96C27.604 30.214 27.36 30.486 27.632 30.956C27.904 31.416 28.844 32.95 30.228 34.182C32.014 35.772 33.462 36.28 33.98 36.496C34.366 36.656 34.826 36.618 35.108 36.318C35.466 35.932 35.908 35.292 36.358 34.662C36.678 34.21 37.082 34.154 37.506 34.314C37.938 34.464 40.224 35.594 40.694 35.828C41.164 36.064 41.474 36.176 41.588 36.374C41.7 36.572 41.7 37.502 41.314 38.594Z" fill="#161616"/>
</svg>
