<svg width="320" height="403" viewBox="0 0 320 403" fill="none" xmlns="http://www.w3.org/2000/svg">
    <path fill-rule="evenodd" clip-rule="evenodd"
          d="M320 32C320 14.3269 305.673 0 288 0H32C14.3269 0 0 14.3269 0 32V313.962C0 331.635 14.3269 345.962 32 345.962H175.036C190.787 345.962 203.556 358.73 203.556 374.481V374.481C203.556 390.231 216.324 403 232.075 403L288 403C305.673 403 320 388.673 320 371V32Z"
          fill="#D9D9D9"/>
    <path fill-rule="evenodd" clip-rule="evenodd"
          d="M320 32C320 14.3269 305.673 0 288 0H32C14.3269 0 0 14.3269 0 32V313.962C0 331.635 14.3269 345.962 32 345.962H175.036C190.787 345.962 203.556 358.73 203.556 374.481V374.481C203.556 390.231 216.324 403 232.075 403L288 403C305.673 403 320 388.673 320 371V32Z"
          fill="#292929"/>
    <path fill-rule="evenodd" clip-rule="evenodd"
          d="M320 32C320 14.3269 305.673 0 288 0H32C14.3269 0 0 14.3269 0 32V313.962C0 331.635 14.3269 345.962 32 345.962H175.036C190.787 345.962 203.556 358.73 203.556 374.481V374.481C203.556 390.231 216.324 403 232.075 403L288 403C305.673 403 320 388.673 320 371V32Z"
          fill="url(#pattern0_22_12444)"/>
</svg>