<svg width="768" height="968" viewBox="0 0 768 968" fill="none" xmlns="http://www.w3.org/2000/svg" xmlns:xlink="http://www.w3.org/1999/xlink" preserveAspectRatio="none">
<path fill-rule="evenodd" clip-rule="evenodd" d="M768 77.1992C768 34.7837 733.615 0.39917 691.2 0.39917H76.8C34.3845 0.39917 0 34.7837 0 77.1991V753.907C0 796.323 34.3845 830.707 76.8 830.707H420.087C457.889 830.707 488.533 861.352 488.533 899.153C488.533 936.955 519.178 967.599 556.979 967.599L691.2 967.599C733.615 967.599 768 933.215 768 890.799V77.1992Z" fill="#D9D9D9"/>
<path fill-rule="evenodd" clip-rule="evenodd" d="M768 77.1992C768 34.7837 733.615 0.39917 691.2 0.39917H76.8C34.3845 0.39917 0 34.7837 0 77.1991V753.907C0 796.323 34.3845 830.707 76.8 830.707H420.087C457.889 830.707 488.533 861.352 488.533 899.153C488.533 936.955 519.178 967.599 556.979 967.599L691.2 967.599C733.615 967.599 768 933.215 768 890.799V77.1992Z" fill="#292929"/>
<path fill-rule="evenodd" clip-rule="evenodd" d="M768 77.1992C768 34.7837 733.615 0.39917 691.2 0.39917H76.8C34.3845 0.39917 0 34.7837 0 77.1991V753.907C0 796.323 34.3845 830.707 76.8 830.707H420.087C457.889 830.707 488.533 861.352 488.533 899.153C488.533 936.955 519.178 967.599 556.979 967.599L691.2 967.599C733.615 967.599 768 933.215 768 890.799V77.1992Z" fill="url(#pattern0_101_10307)"/>
<defs>
<pattern id="pattern0_101_10307" patternContentUnits="objectBoundingBox" width="1" height="1">
<use xlink:href="#image0_101_10307" transform="matrix(0.00111944 0 0 0.000888889 -0.339583 0)"/>
</pattern>
</defs>
</svg>