<svg viewBox="0 0 110 19" fill="currentColor" xmlns="http://www.w3.org/2000/svg">
<path d="M0.848 14.088C3.01333 11.288 5.42133 8.89867 8.072 6.92C10.76 4.94133 13.5973 3.42933 16.584 2.384C19.5707 1.30133 22.5947 0.759999 25.656 0.759999C28.7173 0.759999 31.7227 1.30133 34.672 2.384C37.6587 3.42933 40.496 4.94133 43.184 6.92C45.872 8.89867 48.2987 11.288 50.464 14.088H42.512C40.1973 11.736 37.5653 9.944 34.616 8.712C31.704 7.48 28.7173 6.864 25.656 6.864C22.5573 6.864 19.5333 7.48 16.584 8.712C13.672 9.944 11.04 11.736 8.688 14.088H0.848ZM84.5216 18.568C79.9296 18.568 75.4683 17.392 71.1376 15.04C66.807 12.688 62.999 9.42133 59.7136 5.24H67.5536C69.7936 7.51733 72.3696 9.29067 75.2816 10.56C78.231 11.792 81.311 12.408 84.5216 12.408C87.695 12.408 90.7376 11.792 93.6496 10.56C96.5616 9.29067 99.1376 7.51733 101.378 5.24H109.274C107.108 8.04 104.682 10.4293 101.994 12.408C99.343 14.3867 96.5243 15.9173 93.5376 17C90.5883 18.0453 87.583 18.568 84.5216 18.568Z" fill="currentColor"/>
</svg>
