<svg viewBox="0 0 24 24" fill="none" xmlns="http://www.w3.org/2000/svg">
<path d="M15.7708 17.6569L11.9996 21.4282C10.6953 22.7324 9.12399 23.3842 7.28551 23.3835C5.44703 23.3829 3.87569 22.7311 2.57147 21.4282C1.26725 20.1239 0.615453 18.5526 0.616082 16.7141C0.61671 14.8756 1.2685 13.3043 2.57147 12.0001L6.3427 8.22883L8.22832 10.1144L4.45709 13.8857C3.67141 14.6714 3.27857 15.6142 3.27857 16.7141C3.27857 17.8141 3.67141 18.7569 4.45709 19.5425C5.24276 20.3282 6.18557 20.721 7.28551 20.721C8.38546 20.721 9.32827 20.3282 10.1139 19.5425L13.8852 15.7713L15.7708 17.6569ZM9.17113 16.7141L7.28551 14.8285L14.828 7.28602L16.7136 9.17164L9.17113 16.7141ZM17.6564 15.7713L15.7708 13.8857L19.542 10.1144C20.3277 9.32877 20.7205 8.38597 20.7205 7.28602C20.7205 6.18608 20.3277 5.24327 19.542 4.45759C18.7564 3.67192 17.8135 3.27908 16.7136 3.27908C15.6137 3.27908 14.6709 3.67192 13.8852 4.45759L10.1139 8.22883L8.22832 6.34321L11.9996 2.57198C13.3038 1.26776 14.8754 0.615647 16.7145 0.615647C18.5537 0.615647 20.1247 1.26776 21.4276 2.57198C22.7319 3.87619 23.384 5.44786 23.384 7.28696C23.384 9.12607 22.7319 10.6971 21.4276 12.0001L17.6564 15.7713Z" />
</svg>
