<svg viewBox="0 0 82 71"  xmlns="http://www.w3.org/2000/svg">
<path d="M18.6251 0.183433C14.6399 0.626249 10.3619 2.2991 7.33633 4.61158C5.0753 6.33364 2.68415 9.02334 1.05752 11.6638C-0.0811278 13.4842 -0.178725 13.8779 0.406862 14.0255C0.634592 14.0747 1.39911 14.0912 2.09856 14.0583C3.774 13.9599 4.48971 13.5334 6.01876 11.713C9.45096 7.64568 12.9482 5.44801 17.5516 4.49679C20.382 3.90636 24.8063 3.90636 27.0836 4.49679C30.7761 5.46441 33.9806 7.62929 36.9086 11.1062C38.4863 12.9923 39.4136 13.6811 40.6987 13.9435C41.8048 14.1731 43.0898 14.0091 43.2198 13.6482C43.4314 13.1235 41.1052 9.69576 39.1045 7.54729C33.7366 1.80709 26.6932 -0.734997 18.6251 0.183433Z" />
<path d="M57.5016 22.4884C54.5085 22.8164 51.0926 23.9153 48.555 25.3585C45.5457 27.0805 42.3901 29.9014 40.5683 32.5255C40.0315 33.28 38.9579 34.838 38.1445 36.0024C36.3878 38.5281 34.0618 40.9717 32.3375 42.1034C28.6613 44.498 23.2609 45.6951 18.9502 45.0883C15.9736 44.662 12.4763 43.2186 10.2478 41.4966C9.19048 40.6766 7.22226 38.6921 5.49803 36.6913C4.26178 35.2644 3.2858 34.7559 1.7405 34.7559C0.520522 34.7559 0 34.9364 0 35.3956C0 35.5596 0.35786 36.2812 0.79705 37.0193C5.04257 44.1371 12.0859 48.4177 20.4956 48.9588C24.2531 49.2212 29.377 48.0241 32.858 46.1052C36.6156 44.0387 39.2181 41.595 42.1299 37.3801C44.7325 33.6243 47.1887 30.9183 49.4823 29.2946C50.8486 28.3105 52.9795 27.2937 54.6062 26.8509C56.3792 26.3753 60.9338 26.2441 63.2435 26.6213C68.335 27.4249 72.0762 29.6062 75.3458 33.6407C76.8096 35.4448 77.7043 36.1172 78.9569 36.4125C80.063 36.6584 81.657 36.3633 81.657 35.9205C81.657 35.7563 81.2505 34.9691 80.7462 34.1656C75.6547 25.9817 66.6432 21.4551 57.5016 22.4884Z" />
<path d="M78.7622 57.0769C77.7212 57.2738 77.0706 57.7494 75.8994 59.1598C71.3122 64.7032 66.351 67.0649 59.324 67.0649C55.5339 67.0649 52.3457 66.1793 49.5967 64.3588C48.458 63.6044 46.0832 61.3083 43.8221 58.8154C42.5533 57.4049 41.8213 57.0606 40.0971 57.0606C38.3567 57.0606 38.194 57.1753 38.682 58.0774C40.1134 60.7835 44.2612 65.3756 46.8477 67.0978C52.3944 70.7879 59.1775 71.9031 66.1233 70.263C72.2883 68.8033 77.0706 65.1624 80.9094 58.9631C81.4137 58.1594 81.8203 57.4049 81.8203 57.3066C81.8203 56.9458 80.0798 56.8146 78.7622 57.0769Z"/>
</svg>
