<svg viewBox="0 0 56 56" fill="none" xmlns="http://www.w3.org/2000/svg">
<path d="M42.0016 37.3716C44.9066 38.6059 46.6683 40.2252 46.6683 42.0009C46.6683 45.8672 38.3103 49.0009 28.0016 49.0009C17.693 49.0009 9.33496 45.8672 9.33496 42.0009C9.33496 40.2276 11.0966 38.6036 14.0016 37.3716" stroke="#D6FF41" stroke-width="4.66667" stroke-linecap="round" stroke-linejoin="round"/>
<path fill-rule="evenodd" clip-rule="evenodd" d="M29.722 41.2425L29.7337 41.2308L29.7617 41.1982L29.8667 41.0815L30.254 40.6475C32.1929 38.4393 34.0213 36.1366 35.7327 33.7478C37.2307 31.6478 38.766 29.2678 39.935 26.9041C41.0783 24.5941 42 22.0531 42 19.7035C42 11.3665 35.8913 4.66748 28 4.66748C20.1087 4.66748 14 11.3641 14 19.7035C14 22.0531 14.9217 24.5941 16.065 26.9041C17.234 29.2678 18.7717 31.6478 20.265 33.7478C22.0907 36.2939 24.0495 38.7419 26.1333 41.0815L26.2383 41.1982L26.2663 41.2308L26.278 41.2425C26.4966 41.4816 26.7626 41.6725 27.0591 41.8032C27.3556 41.9338 27.676 42.0013 28 42.0013C28.324 42.0013 28.6444 41.9338 28.9409 41.8032C29.2374 41.6725 29.5034 41.4816 29.722 41.2425ZM28 14.0008C26.7623 14.0008 25.5753 14.4925 24.7002 15.3676C23.825 16.2428 23.3333 17.4298 23.3333 18.6675C23.3333 19.9052 23.825 21.0921 24.7002 21.9673C25.5753 22.8425 26.7623 23.3341 28 23.3341C29.2377 23.3341 30.4247 22.8425 31.2998 21.9673C32.175 21.0921 32.6667 19.9052 32.6667 18.6675C32.6667 17.4298 32.175 16.2428 31.2998 15.3676C30.4247 14.4925 29.2377 14.0008 28 14.0008Z" fill="#D6FF41"/>
</svg>
